<?xml version="1.0" encoding="UTF-8" standalone="no"?>
<!-- Created with Inkscape (http://www.inkscape.org/) -->

<svg
   version="1.1"
   id="svg1"
   width="70"
   height="70"
   viewBox="0 0 70 70"
   sodipodi:docname="cintre.svg"
   inkscape:export-filename="cintre.png"
   inkscape:export-xdpi="96"
   inkscape:export-ydpi="96"
   inkscape:version="1.4 (86a8ad7, 2024-10-11)"
   xmlns:inkscape="http://www.inkscape.org/namespaces/inkscape"
   xmlns:sodipodi="http://sodipodi.sourceforge.net/DTD/sodipodi-0.dtd"
   xmlns="http://www.w3.org/2000/svg"
   xmlns:svg="http://www.w3.org/2000/svg">
  <defs
     id="defs1" />
  <sodipodi:namedview
     id="namedview1"
     pagecolor="#505050"
     bordercolor="#eeeeee"
     borderopacity="1"
     inkscape:showpageshadow="0"
     inkscape:pageopacity="0"
     inkscape:pagecheckerboard="0"
     inkscape:deskcolor="#505050"
     showgrid="false"
     inkscape:zoom="4.9096386"
     inkscape:cx="12.119018"
     inkscape:cy="26.376687"
     inkscape:window-width="1920"
     inkscape:window-height="1017"
     inkscape:window-x="1912"
     inkscape:window-y="-8"
     inkscape:window-maximized="1"
     inkscape:current-layer="g1" />
  <g
     inkscape:groupmode="layer"
     inkscape:label="Image"
     id="g1">
    <ellipse
       style="fill:#333333;fill-opacity:1;fill-rule:evenodd;stroke-width:12.5171;stroke-linecap:round;stroke-linejoin:round;stroke-miterlimit:100"
       id="path2"
       cx="32.792641"
       cy="35.746014"
       rx="61.104294"
       ry="51.429451" />
    <path
       style="fill:#ffffff;fill-opacity:1;stroke-width:0.387882"
       d="m 6.979833,51.333707 c 5.656111,-0.390319 50.126595,-0.408654 57.255984,-0.0236 2.91182,0.157264 5.460005,0.143257 5.662633,-0.03111 0.224847,-0.193507 0.06952,-1.028791 -0.398604,-2.143439 -0.625643,-1.489744 -1.127245,-2.015088 -2.7214,-2.850211 -1.074911,-0.563109 -2.34268,-1.037872 -2.817265,-1.055029 -0.474586,-0.01715 -1.004007,-0.262219 -1.176493,-0.544583 -0.172486,-0.282369 -1.990112,-1.252344 -4.03917,-2.15551 C 48.627464,38.07049 46.358052,36.679281 43.831177,33.38734 c -2.459395,-3.204024 -3.875559,-4.299448 -6.585008,-5.093586 -1.964397,-0.575766 -1.466,-1.493833 -0.668165,-3.619749 0.806603,-2.149275 1.325452,-4.46805 0.21629,-5.553123 -0.924982,-0.904893 -2.423896,-1.326629 -3.637496,-1.023447 -1.188116,0.296812 -3.823602,2.46916 -3.823602,3.151676 0,0.93651 1.626161,-0.899342 3.145244,-1.502028 1.847357,-0.732927 2.551335,0.279636 2.772115,0.677586 0.502567,0.905875 0.468123,1.693046 0.0056,3.351878 -0.578144,1.011919 -0.792077,1.715632 -0.792077,2.532616 0,1.340678 0.260969,1.533085 -1.307257,2.012148 -2.595856,0.792979 -3.949333,1.730003 -5.376038,3.721865 -2.805222,3.916445 -5.901406,6.405973 -10.127003,8.142759 -6.33723,2.604699 -9.3559654,4.000212 -10.1109522,4.674134 -0.4452829,0.397473 -1.2040619,0.722676 -1.686173,0.722676 -2.0594572,0 -4.88715021,2.08246 -5.56796071,4.100531 -0.61678812,1.828297 -0.2442603,2.580073 1.10769931,2.235374 0.5904343,-0.150547 3.1029926,-0.413771 5.5834316,-0.584943 z m 1.9608214,-2.625478 c 0,-0.180037 2.7794646,-1.706208 6.1765876,-3.391494 3.397123,-1.685285 7.941326,-3.97382 10.09823,-5.085629 2.156903,-1.111813 5.30301,-2.73357 6.991347,-3.603908 l 3.069705,-1.582433 13.499237,6.677684 c 7.424579,3.672727 13.499235,6.820655 13.499235,6.995402 0,0.174744 -12.000227,0.317718 -26.667171,0.317718 -14.666944,0 -26.6671706,-0.147302 -26.6671706,-0.32734 z"
       id="path1"
       sodipodi:nodetypes="sssssssssssssssscssssssssssssscssss" />
  </g>
</svg>
