<?xml version="1.0" encoding="UTF-8" standalone="no"?>
<!-- Created with Inkscape (http://www.inkscape.org/) -->

<svg
   version="1.1"
   id="svg1"
   width="70"
   height="70"
   viewBox="0 0 70 70"
   sodipodi:docname="leapetiteprincesse.svg"
   inkscape:version="1.4 (86a8ad7, 2024-10-11)"
   inkscape:export-filename="leapetiteprincesse.png"
   inkscape:export-xdpi="96"
   inkscape:export-ydpi="96"
   xmlns:inkscape="http://www.inkscape.org/namespaces/inkscape"
   xmlns:sodipodi="http://sodipodi.sourceforge.net/DTD/sodipodi-0.dtd"
   xmlns="http://www.w3.org/2000/svg"
   xmlns:svg="http://www.w3.org/2000/svg">
  <defs
     id="defs1">
    <clipPath
       clipPathUnits="userSpaceOnUse"
       id="clipPath37">
      <path
         id="path38"
         style="fill:#001301;fill-opacity:0.373333;fill-rule:evenodd;stroke-width:10.0866;stroke-linecap:round;stroke-linejoin:round;stroke-miterlimit:100"
         d="m 220.35938,22.728516 c -1.6798,0.07306 -3.36029,0.092 -5.04102,0.138672 -7.37503,0.129251 -14.7508,0.2188 -22.12695,0.25 -1.67523,0.0071 -2.48384,0.0036 -3.73047,0.0039 -2.7709,2.279558 -6.96022,3.919261 -12.64844,4.199218 -4.63003,0.227876 -9.26722,0.30368 -13.89453,0.59375 -5.93142,0.372379 -11.85956,0.841775 -17.75781,1.582032 -6.4665,0.74529 -12.94062,1.507564 -19.33399,2.75 -1.10458,0.24687 -2.21628,0.466275 -3.31445,0.740234 -5.09489,1.271015 -10.01787,3.145966 -14.62695,5.667969 -1.71283,0.949844 -2.17198,1.156613 -3.72461,2.179687 -1.05526,0.69534 -2.01633,1.468805 -2.99219,2.265625 -0.2515,0.205358 -0.50782,0.405031 -0.76172,0.607422 -6.120311,4.878762 -11.703503,6.02987 -15.734375,4.841797 A 162.5,158.54367 0 0 0 25.96875,141.42188 c 0.07444,0.19574 0.138605,0.36033 0.220703,0.57421 0.79998,2.07751 1.237978,4.20622 1.574219,6.39844 1.281897,8.3577 -1.198485,14.11234 -4.955078,16.92578 a 162.5,158.54367 0 0 0 -0.529297,7.65625 162.5,158.54367 0 0 0 14.552734,65.51172 c 0.713191,0.94409 1.412997,1.94749 2.082031,3.07422 1.279196,2.15431 2.717601,4.35686 4.066407,6.51367 1.788951,2.84637 3.602177,5.68874 5.708984,8.31445 1.070883,1.33466 2.309372,2.70525 3.4375,3.98243 3.819812,4.32653 8.039332,8.26788 12.197266,12.26172 3.319927,3.19256 6.553709,6.47246 9.794922,9.74414 2.827833,2.78968 5.636473,5.60049 8.507812,8.3457 2.634463,2.44602 5.225767,4.96414 8.103516,7.12695 2.54206,1.87403 5.488881,3.07064 8.375,4.30078 2.951311,1.20403 5.971871,2.24472 9.025391,3.15821 3.4717,0.97618 6.94027,1.95437 10.38476,3.02343 2.44591,0.78299 4.91093,1.50834 7.37305,2.23829 5.93969,1.76095 9.75077,4.66684 11.79883,7.83789 2.88844,-2.66165 3.12469,-5.1438 -3.91406,-7.02735 -0.0861,-0.023 -0.17392,-0.0402 -0.25782,-0.0703 -0.31505,-0.11327 0.66828,0.0564 1,0.10156 1.58341,0.21563 3.16116,0.46858 4.74415,0.6875 3.79605,0.52255 7.58417,1.10434 11.39453,1.51367 3.65532,0.38866 7.32765,0.54646 10.99804,0.70899 4.41368,0.20188 8.83196,0.23355 13.24805,0.34961 7.13922,0.30865 14.28011,0.54644 21.42188,0.78711 8.17557,0.3192 16.35481,0.52163 24.53515,0.66406 7.56526,0.12117 15.13121,0.1584 22.69727,0.1875 0.26496,9e-4 0.52996,8.5e-4 0.79492,0.002 6.78524,-5.91507 13.61936,-11.77398 20.36328,-17.73633 1.25094,-1.11594 2.50148,-2.23117 3.75195,-3.34765 1.23703,-1.10448 2.4657,-2.21924 3.71094,-3.31445 4.05036,-3.56239 3.50189,-3.00498 7.55274,-6.46094 3.52841,-3.01024 3.53564,-3.04794 6.94921,-6.07617 2.86335,-2.59089 5.65353,-5.26525 8.3125,-8.06641 2.26028,-2.38115 4.44731,-4.83747 6.66993,-7.25391 2.99576,-3.30366 6.07642,-6.52588 9.20117,-9.70703 1.04258,-1.17235 0.51036,-0.56666 1.59179,-1.81836 4.71502,-5.45733 9.68325,-7.71331 13.82227,-7.70312 0.96943,0.002 1.88141,0.15371 2.74609,0.39258 a 162.5,158.54367 0 0 0 1.08008,-2.36133 c -0.93576,-2.5065 -1.46504,-5.59365 -1.39062,-9.27539 0.0923,-4.56582 0.49437,-9.12104 0.75586,-13.67969 0.48552,-10.12368 0.66938,-20.25866 0.89648,-30.39063 0.16702,-8.26436 0.26526,-16.53131 0.35156,-24.79687 0.0546,-5.23273 1.33111,-9.20278 3.21485,-12.04297 -0.49783,-2.38656 -1.07188,-4.75742 -1.66211,-7.12305 -1.06859,-4.28287 -2.03019,-8.01091 -3.2461,-12.26562 -0.60991,-2.1342 -1.26738,-4.25535 -1.90039,-6.38281 C 323.83807,116.55622 320.64925,106.17372 317,95.947266 c -2.24197,-6.125979 -4.70263,-12.17139 -7.26953,-18.167969 -0.27066,-0.627852 -0.54184,-1.254961 -0.8125,-1.882813 -0.23621,-0.547939 -0.37168,-1.053157 -0.56641,-1.583984 -0.58505,-0.501196 -1.1713,-1.031587 -1.75781,-1.615234 -1.17991,-1.174151 -2.49047,-2.210492 -3.78516,-3.253907 -2.80946,-2.280563 -5.51839,-4.684163 -8.1582,-7.158203 -2.6018,-2.481534 -4.92236,-5.230676 -7.34375,-7.882812 -1.62967,-1.779836 -3.41131,-3.398481 -5.23242,-4.976563 -1.81909,-1.568515 -3.63543,-3.144262 -5.58008,-4.55664 -1.41445,-0.986042 -2.84016,-1.957806 -4.32226,-2.839844 -0.37218,-0.161256 -0.71322,-0.405265 -1.09376,-0.546875 -0.0773,-0.02878 0.19804,0.05077 0.20704,0.132812 0.007,0.06649 -0.13277,-0.01751 -0.19727,-0.03516 -0.28956,-0.07922 -0.57544,-0.170629 -0.86328,-0.255859 -2.17764,-0.678516 -4.39854,-1.167645 -6.64453,-1.552735 -3.78258,-0.552545 -7.55674,-1.229977 -11.23633,-2.28125 -1.12574,-0.321629 -2.23676,-0.689874 -3.35547,-1.035156 -5.33503,-1.729397 -10.68607,-3.53582 -15.69726,-6.085937 -1.01756,-0.51782 -2.0039,-1.095198 -3.00586,-1.642579 -0.8832,-0.534852 -1.77205,-1.057565 -2.64844,-1.603515 -8.61713,-5.368128 3.19318,1.895882 -4.55078,-2.896485 -0.83973,-0.519665 -1.70767,-0.985634 -2.5586,-1.482421 -0.0525,-6.48e-4 -0.11745,-0.01782 -0.16796,-0.01563 z" />
    </clipPath>
  </defs>
  <sodipodi:namedview
     id="namedview1"
     pagecolor="#505050"
     bordercolor="#eeeeee"
     borderopacity="1"
     inkscape:showpageshadow="0"
     inkscape:pageopacity="0"
     inkscape:pagecheckerboard="0"
     inkscape:deskcolor="#505050"
     showgrid="false"
     inkscape:zoom="8.5789474"
     inkscape:cx="25.702454"
     inkscape:cy="38.058282"
     inkscape:window-width="1920"
     inkscape:window-height="1017"
     inkscape:window-x="1912"
     inkscape:window-y="-8"
     inkscape:window-maximized="1"
     inkscape:current-layer="g1" />
  <g
     inkscape:groupmode="layer"
     inkscape:label="Image"
     id="g1">
    <ellipse
       style="fill:#333333;fill-opacity:1;fill-rule:evenodd;stroke-width:10;stroke-linecap:round;stroke-linejoin:round;stroke-miterlimit:100"
       id="path39"
       cx="34.969326"
       cy="37.300613"
       rx="59.331287"
       ry="49.656445" />
    <path
       style="fill:#ffffff;fill-opacity:1"
       d="M 183,374.5 V 369 H 172.5 162 v 4.5 c 0,2.475 -0.45,4.5 -1,4.5 -0.55,0 -1,-2.025 -1,-4.5 V 369 H 149.5 139 v 2.55902 c 0,1.45136 -0.43284,2.2915 -1,1.94098 -0.55,-0.33992 -1,-1.43366 -1,-2.43053 0,-1.56105 -1.11492,-1.87704 -8.03676,-2.27774 C 116.99119,368.09868 116.11673,366 127.8,366 H 137 V 360.5 355 H 126.5 116 v 5.55902 c 0,3.45136 -0.37914,5.32469 -1,4.94098 -0.55,-0.33992 -1,-2.7826 -1,-5.42817 0,-4.78153 -0.0223,-4.81383 -3.75,-5.42998 -2.0625,-0.34091 -6.9645,-0.62479 -10.893336,-0.63084 -6.805952,-0.0105 -7.470775,-0.22786 -14.076103,-4.60225 -6.881477,-4.55727 -6.95738,-4.65715 -10.259696,-13.5 C 73.191053,331.00894 71.355534,327 70.941933,327 c -0.413601,0 -0.659262,2.0308 -0.545911,4.51288 0.11335,2.48209 -0.09176,4.99482 -0.455802,5.58385 -1.053003,1.70379 -1.582484,-0.96686 -1.50612,-7.59673 l 0.06911,-6 -7.762978,-0.5 C 51.472215,322.40306 49.915696,320.56355 58.5,320.35246 c 9.246049,-0.22735 9.500101,-0.27021 9.498472,-1.60246 -8.41e-4,-0.6875 -1.494296,-5.075 -3.318789,-9.75 l -3.317261,-8.5 -6.340153,-0.30184 c -3.487085,-0.16602 -6.615008,0.14288 -6.950942,0.68643 -0.335934,0.54355 -0.556024,4.16688 -0.489089,8.05184 C 47.649173,312.8214 47.320552,316 46.851969,316 46.383386,316 46,312.4 46,308 v -8 h -5.940983 c -5.599421,0 -9.831249,-1.85117 -4.868034,-2.12947 C 38.42113,297.6894 43.263929,297.32318 44.75,297.14765 45.656824,297.04053 46,294.25459 46,287 V 277 H 35.5 25 v 3.05902 c 0,1.7847 -0.416577,2.80156 -1,2.44098 -0.55,-0.33992 -1,-1.55437 -1,-2.69877 0,-1.14441 -0.7875,-2.67854 -1.75,-3.40918 -1.666667,-1.26518 -1.666667,-1.32996 0,-1.36025 C 22.803536,275.00357 23,273.82122 23,264.5 V 254 h -5.940983 c -3.267541,0 -6.219098,-0.45 -6.559017,-1 -0.388028,-0.62784 1.822949,-1 5.940983,-1 H 23 V 241.5 231 H 13.5 C 7.8333333,231 4,230.59649 4,230 c 0,-0.59649 3.8333333,-1 9.5,-1 H 23 V 218.5 208 H 12.5 c -10.1881484,0 -10.5034155,0.0668 -10.6149991,2.25 -0.064421,1.26043 -0.4788846,0.49076 -0.94237029,-1.75 -1.07220656,-5.18368 -1.07220656,-31.81632 0,-37 0.72653549,-3.5125 0.84138669,-3.05547 0.94237029,3.75 L 2,183 h 9.940983 c 5.548633,0 10.214057,0.44184 10.559017,1 0.397118,0.64255 -3.156282,1 -9.940983,1 H 2 V 195.5 206 H 12.5 23 v -4.55902 c 0,-2.7847 0.389188,-4.31848 1,-3.94098 0.596808,0.36885 1,6.84372 1,16.05902 V 229 h 3.5 c 1.925,0 3.5,0.45 3.5,1 0,0.55 -1.575,1 -3.5,1 H 25 v 10.5653 10.56529 l 7.25,-0.13846 c 3.9875,-0.0762 8.215589,-0.10554 9.395754,-0.0653 1.460931,0.0498 3.205022,1.74872 5.46475,5.32317 14.098177,22.30056 36.433571,42.46037 61.158046,55.20095 L 119.03709,318 H 184 248.96291 l 10.76854,-5.54481 c 24.72264,-12.72989 48.33015,-34.00248 61.81749,-55.7034 1.84013,-2.96075 3.70396,-4.7856 4.95106,-4.84752 1.1,-0.0546 5.4875,-0.0782 9.75,-0.0524 l 7.75,0.0469 V 241.44941 231 h -4 c -2.2,0 -4,-0.45 -4,-1 0,-0.55 1.80351,-1 4.00781,-1 h 4.0078 l -0.10182,-15.57265 c -0.056,-8.56496 0.16549,-15.83996 0.49219,-16.16667 0.32671,-0.32671 0.59402,1.50599 0.59402,4.07265 V 206 h 11 11 V 195.5 185 h -10.5 c -6.33333,0 -10.5,-0.39683 -10.5,-1 0,-0.60317 4.16667,-1 10.5,-1 H 367 V 172.5 162 h -10.5 c -6.33333,0 -10.5,-0.39683 -10.5,-1 0,-0.60296 4.15501,-1 10.46502,-1 h 10.46501 l 0.32409,-10.25 0.32409,-10.25 0.21089,10.25 c 0.19574,9.51303 0.3547,10.25 2.2109,10.25 1.1,0 2,0.45 2,1 0,0.55 -0.9,1 -2,1 -1.87302,0 -2,0.66667 -2,10.5 V 183 h 3 c 1.65,0 3,0.45 3,1 0,0.55 -1.35,1 -3,1 h -3 v 10.5 10.5 h 2.5 c 1.375,0 2.5,0.45 2.5,1 0,0.55 -1.125,1 -2.5,1 H 368 v 10.41667 c 0,7.39616 0.36246,10.56374 1.25,10.92387 0.95114,0.38593 0.96762,0.70864 0.0689,1.34976 -0.6496,0.4634 -1.35848,2.86016 -1.57529,5.32613 l -0.3942,4.48357 -0.1747,-4.75 L 367,231 h -11 -11 v 10.48543 10.48543 l 7.75,-0.0656 c 10.84238,-0.0918 11.44541,-0.0304 10.75,1.09478 -0.33992,0.55 -4.64148,1 -9.55902,1 H 345 v 10.59948 10.59948 l 4.53434,-0.4525 c 3.03219,-0.30261 4.4144,-0.0871 4.17228,0.65051 -0.19913,0.60667 -2.22179,1.24053 -4.4948,1.4086 l -4.13273,0.30556 -0.336,8.19444 -0.336,8.19443 -0.20354,-8.25 L 344,277 h -11 -11 v 9.89301 c 0,7.0086 0.36445,10.02375 1.25,10.34141 0.6875,0.24662 4.7375,0.38782 9,0.31379 5.74082,-0.0997 7.75,0.20064 7.75,1.15859 0,0.96146 -2.30034,1.2932 -8.96725,1.2932 h -8.96725 l -0.28275,11.25 -0.28275,11.25 -10.75,0.28383 -10.75,0.28383 -0.0153,8.71617 C 299.97627,336.57772 299.53316,341.175 299,342 c -0.66328,1.02635 -0.99066,-1.65768 -1.0368,-8.5 l -0.0674,-10 -3.94187,10 c -2.16803,5.5 -3.94458,10.02214 -3.94789,10.0492 -0.003,0.0271 1.68148,-0.10857 3.74398,-0.3014 3.53535,-0.33053 3.63889,-0.2618 1.80887,1.2008 -1.06762,0.85327 -2.98012,1.5514 -4.25,1.5514 -1.52754,0 -2.31306,0.59221 -2.32125,1.75 -0.0154,2.1711 -6.12194,6.25 -9.35696,6.25 -1.5992,0 -2.64497,0.74912 -3.14098,2.25 l -0.74358,2.25 -0.4426,-2.25 c -0.39802,-2.02335 -1.02593,-2.25 -6.23348,-2.25 -3.18498,0 -7.90786,0.29016 -10.49527,0.64481 l -4.7044,0.64481 0.24797,6.07589 c 0.2981,7.30401 0.15136,7.38373 -13.86832,7.53481 L 231,369 v 3 c 0,1.65 -0.45,3 -1,3 -0.55,0 -1,-1.35 -1,-3 v -3 H 218.5 208 v 5 c 0,2.75 -0.45,5 -1,5 -0.55,0 -1,-2.25 -1,-5 v -5 H 195.5 185 v 5.5 c 0,3.025 -0.45,5.5 -1,5.5 -0.55,0 -1,-2.475 -1,-5.5 z m -23,-14 V 355 H 149.5 139 v 5.5 5.5 h 10.5 10.5 z m 23,0 V 355 H 172.5 162 v 5.5 5.5 h 10.5 10.5 z m 23,0 V 355 H 195.5 185 v 5.5 5.5 h 10.5 10.5 z m 23,0 V 355 H 218.5 208 v 5.5 5.5 h 10.5 10.5 z m 23,0 V 355 H 241.5 231 v 5.5 5.5 h 10.5 10.5 z m -15,-9.86298 c 19.56072,-2.28099 36.08458,-5.46686 41,-7.90497 3.79679,-1.88325 4.5,-2.68849 4.5,-5.15292 0,-2.45633 -0.71569,-3.28456 -4.5,-5.20762 -21.22265,-10.78462 -99.64899,-14.71036 -154.94316,-7.75589 -20.92676,2.63201 -36.299551,7.42301 -37.66969,11.73994 -0.820184,2.58417 3.305581,6.05487 9.61285,8.08659 6.43299,2.07221 26.41047,5.24114 41,6.50363 6.875,0.59493 14.3,1.25427 16.5,1.4652 9.62995,0.92334 72.72916,-0.40134 84.5,-1.77396 z m 83.25,-30.53708 c 0.4125,-0.055 0.75,-4.61965 0.75,-10.14375 v -10.04381 l -7.18057,0.29381 -7.18057,0.29381 -3.3179,8.5 c -3.56262,9.12693 -3.87805,10.64764 -2.31656,11.16813 0.85391,0.28464 17.02786,0.22733 19.2456,-0.0682 z M 59.687826,296.51854 C 54.550083,281.50329 52.380585,277.01872 50.25,277.00962 c -1.2375,-0.005 -2.296271,0.55288 -2.352825,1.24038 -0.506953,6.16278 -0.276109,17.48111 0.375378,18.40489 1.016325,1.44111 11.910505,1.31098 11.415273,-0.13635 z M 321,287.33153 V 277 l -2.75,0.01 c -2.55274,0.009 -2.99529,0.67242 -6.16966,9.25 -1.88081,5.08221 -3.58279,9.71516 -3.78219,10.29545 -0.22944,0.66775 2.03551,1.06479 6.16966,1.08153 L 321,297.66306 Z M 45.81528,268 c 0.173405,-3.575 -0.236122,-8.1875 -0.910059,-10.25 L 43.679881,254 H 34.33994 25 v 10.3949 10.39491 L 35.25,274.6449 45.5,274.5 Z M 51,274.11481 c 0,-0.48685 -0.657386,-2.39935 -1.460858,-4.25 -0.932866,-2.14868 -1.520183,-2.73231 -1.625,-1.61481 -0.09028,0.9625 -0.248001,2.3125 -0.350494,3 -0.221864,1.4882 1.321467,3.75 2.558797,3.75 C 50.6051,275 51,274.60166 51,274.11481 Z m 269.95323,-5.07761 -0.0468,-5.5372 -1.95241,5 c -2.4183,6.19312 -2.4167,6.41055 0.046,6.22505 1.74728,-0.13162 1.99409,-0.85033 1.95323,-5.68785 z M 343.25,274.1587 C 343.6625,274.07142 344,269.5 344,264 v -10 h -9.79911 -9.79911 l -1.20089,3.321 c -1.1681,3.23033 -1.69763,15.84893 -0.70667,16.83988 0.4293,0.42931 18.72574,0.42739 20.75578,-0.002 z M 366.78498,218.25 367.06997,208 H 356.03498 345 v 10.53383 10.53383 L 355.75,228.78383 366.5,228.5 Z m -183.76967,88.53138 c -0.0118,-2.87057 -0.35321,-3.58894 -1.497,-3.15003 -1.1003,0.42222 -1.229,1.04072 -0.5,2.40287 1.61917,3.02543 1.04816,3.62544 -1.05158,1.105 -3.83269,-4.60061 -2.20942,-7.25266 5.30168,-8.66175 3.83652,-0.71974 4.70224,0.12156 2.48159,2.41158 -1.01852,1.05034 0.16212,1.16037 6.37558,0.59417 8.34378,-0.76032 9.51825,-0.18457 8.4342,4.13462 -0.61487,2.44985 -0.81435,2.4997 -9.19549,2.29814 -6.41453,-0.15427 -8.78893,0.14446 -9.45033,1.18899 -0.60384,0.95363 -0.88818,0.21842 -0.89865,-2.32359 z m -44.50976,-1.7724 C 137.76961,303.81821 139.65811,301 141.192,301 c 1.32822,0 0.56147,4.25995 -0.85036,4.72446 -0.6371,0.20961 -1.46334,-0.11235 -1.83609,-0.71548 z m 4.98892,-0.0179 c -0.34296,-0.55492 -0.32704,-1.9432 0.0354,-3.08507 0.45015,-1.4183 -0.0379,-2.81785 -1.54022,-4.41703 C 139.96337,295.33211 139.94841,293 141.96082,293 c 1.362,0 4.96307,6.31498 4.25173,7.45601 -0.35796,0.57419 -0.52002,2.05649 -0.36013,3.29399 0.29523,2.28494 -1.21993,3.08241 -2.35795,1.24105 z M 148,301 c 0,-1.11111 0.66667,-2 1.5,-2 0.83333,0 1.5,0.88889 1.5,2 0,1.11111 -0.66667,2 -1.5,2 -0.83333,0 -1.5,-0.88889 -1.5,-2 z m 12.46489,-0.41324 C 159.53269,299.16404 158.23274,298 157.57612,298 c -1.65613,0 -5.20338,-2.70607 -4.48671,-3.42275 1.26522,-1.26521 6.60882,1.64188 8.30928,4.52052 2.21843,3.75552 1.40312,5.05558 -0.9338,1.48899 z m -13.28379,-4.76338 c 0.17539,-1.1917 0.8814,-2.35197 1.5689,-2.57839 1.84822,-0.60867 1.53729,3.43079 -0.3189,4.14308 -1.174,0.4505 -1.48864,0.0567 -1.25,-1.56469 z m -41.68665,-15.82951 c -2.73545,-3.02264 -1.13253,-3.45461 2.14017,-0.57675 2.04404,1.79743 2.40818,2.52874 1.27037,2.55128 -0.87726,0.0174 -2.412,-0.87116 -3.41054,-1.97453 z m 3.75555,-9.66829 c -1.2375,-0.86324 -2.25,-2.20311 -2.25,-2.97749 0,-1.03061 0.80404,-0.81352 3,0.81003 4.55205,3.36548 3.85505,5.37978 -0.75,2.16746 z m -14.01175,-2.38176 c -2.285666,-1.68089 -5.774961,-3.31893 -7.753988,-3.64009 -3.090101,-0.50145 -3.677264,-0.28169 -4.157879,1.55618 C 82.449283,269.21395 81,268.36675 81,264.5 c 0,-3.2913 0.19379,-3.49731 3.25,-3.4549 1.7875,0.0248 4.6,0.64184 6.25,1.37118 2.647385,1.17021 3.382,1.09655 6.25,-0.62666 3.65018,-2.19318 4.25905,-1.24983 1.266522,1.96227 l -1.983478,2.12901 3.233478,2.54846 c 4.688008,3.69485 1.061838,3.25777 -4.028272,-0.48554 z M 270.6875,266.35417 C 270.30937,265.97604 270,264.58367 270,263.26001 c 0,-1.75378 0.47474,-2.31523 1.75,-2.06964 1.08766,0.20946 1.75,1.2465 1.75,2.73999 0,2.40581 -1.5203,3.716 -2.8125,2.42381 z m -7.1421,-1.28072 c -0.35084,-0.56766 -0.12218,-1.99572 0.50812,-3.17346 0.63031,-1.17774 0.74214,-1.89173 0.2485,-1.58665 -1.50408,0.92957 -3.63291,-1.00867 -2.97912,-2.71242 0.75899,-1.9779 4.6771,-2.13225 4.6771,-0.18425 0,0.77916 0.5625,1.60439 1.25,1.83384 0.92984,0.31033 0.99387,1.14317 0.25,3.25162 -1.07419,3.04473 -2.9202,4.24503 -3.9546,2.57132 z M 114.2,263.8 c -1.91186,-1.91186 -1.38964,-2.93538 0.8,-1.56793 2.02042,1.26178 2.6734,2.76793 1.2,2.76793 -0.44,0 -1.34,-0.54 -2,-1.2 z m 160,-2 c -1.76299,-1.76299 -1.46671,-2.8 0.8,-2.8 1.33333,0 2,0.66667 2,2 0,2.26671 -1.03701,2.56299 -2.8,0.8 z M 75,259.94098 c 0,-0.58246 0.45,-0.7809 1,-0.44098 0.55,0.33992 1,0.81648 1,1.05902 C 77,260.80156 76.55,261 76,261 c -0.55,0 -1,-0.47656 -1,-1.05902 z m 30.22251,-0.49768 c -2.9966,-2.0989 -2.80868,-2.82956 1.0904,-4.23949 1.82209,-0.65887 7.20511,-4.23677 11.96226,-7.95088 4.75714,-3.71411 11.80516,-8.69508 15.66226,-11.06882 l 7.01291,-4.3159 -2.50351,-4.78786 c -1.69098,-3.23395 -2.40842,-6.02693 -2.21053,-8.60565 0.38045,-4.95769 2.5637,-5.83033 2.5637,-1.0247 0,1.9525 -0.39392,3.55 -0.87538,3.55 -0.48146,0 0.34776,2.025 1.84272,4.5 1.49495,2.475 3.03848,4.5 3.43007,4.5 1.03482,0 1.9453,-5.71631 2.16825,-13.61311 0.1153,-4.08387 -0.69532,-10.95697 -1.99167,-16.88689 -2.60808,-11.93026 -3.39802,-22.61298 -1.71559,-23.20084 1.50596,-0.5262 5.07621,9.04665 7.06782,18.95084 0.85714,4.2625 1.87938,7.75 2.27165,7.75 0.39227,0 2.68952,-5.93759 5.105,-13.19465 2.41548,-7.25706 5.14705,-14.11956 6.07016,-15.25 3.40299,-4.16731 3.18582,1.17032 -0.67469,16.58266 l -3.76172,15.01792 4.35422,4.43663 c 3.69804,3.76803 4.45244,4.1707 5.00598,2.67203 1.40766,-3.81112 1.95703,-15.8501 0.8791,-19.26459 -1.15012,-3.64314 -2.81859,-20.00404 -3.62026,-35.5 -0.534,-10.32202 0.28189,-12.2451 5.6932,-13.41899 l 3.45114,-0.74867 -3.68358,-1.58739 C 164.90626,140.62898 163,136.68247 163,128.63299 c 0,-4.24947 -0.42427,-6.60775 -1.23755,-6.87884 -1.51236,-0.50412 -1.47977,-8.69279 0.0383,-9.63103 0.57816,-0.35732 1.5845,-2.7676 2.23631,-5.35616 1.5107,-5.99954 3.61069,-8.018456 4.53011,-4.35521 0.81539,3.24879 1.72876,3.27227 3.43279,0.0883 1.46981,-2.746371 3,-3.300739 3,-1.08686 0,1.16471 0.55487,1.20866 3.1563,0.25 2.43938,-0.89894 3.25034,-0.88809 3.57031,0.0478 0.26302,0.76928 1.48253,0.99723 3.3437,0.625 2.23505,-0.44701 2.92969,-0.21714 2.92969,0.96951 0,0.8555 1.0125,1.69925 2.25,1.875 1.2375,0.17575 2.25,0.99455 2.25,1.81955 0,0.825 0.80568,2.10075 1.79041,2.83501 1.06936,0.79736 1.56368,2.04936 1.22742,3.10881 -0.31099,0.97985 0.11852,2.33942 0.95959,3.03744 2.18937,1.81702 1.93491,2.80957 -1.92936,7.52539 -1.89856,2.31695 -4.20226,6.08789 -5.11933,8.37987 -0.91707,2.29199 -2.54817,4.78416 -3.62466,5.53816 -1.65034,1.15594 -1.85152,2.07608 -1.28294,5.86767 0.58252,3.88448 1.05048,4.57197 3.43698,5.04927 3.80773,0.76155 8.35726,4.81444 11.58277,10.31835 2.53996,4.33411 2.63958,4.94564 1.58537,9.73237 -0.61869,2.80921 -1.61856,9.60766 -2.22193,15.10766 -0.60337,5.5 -1.27381,10.28666 -1.48987,10.63702 -0.21606,0.35037 0.1288,3.23444 0.76635,6.40906 l 1.15919,5.77203 1.61504,-8.09278 c 0.88827,-4.45103 2.38678,-8.94554 3.33001,-9.9878 0.94323,-1.04226 1.71704,-2.75958 1.71959,-3.81627 0.006,-2.40804 4.45869,-13.46311 5.75993,-14.30003 0.53123,-0.34168 1.26403,-1.57757 1.62844,-2.74643 0.8299,-2.66197 7.45965,-9.5839 8.5399,-8.91627 0.44061,0.27231 1.03851,3.99304 1.32867,8.26829 0.51157,7.5375 -0.25015,14.09554 -2.46553,21.22703 -0.78787,2.53623 -0.77046,3.55468 0.0655,3.83334 1.83005,0.61001 1.31014,3.02354 -0.79527,3.69177 -1.06353,0.33755 -3.58168,3.63038 -5.59587,7.31739 -2.0142,3.68701 -5.41903,9.04684 -7.5663,11.91074 -2.14727,2.8639 -3.90412,6.09087 -3.90412,7.17105 0,1.08017 0.92538,5.86029 2.0564,10.62248 2.43454,10.25072 2.08892,11.02616 -5.35671,12.01865 -2.89571,0.386 -6.52899,1.68474 -8.19969,2.93103 -1.65,1.23086 -4.07979,2.80992 -5.39954,3.50903 -2.35447,1.24723 -2.38881,1.20501 -1.82854,-2.24756 0.5462,-3.36582 0.42239,-3.54654 -2.85046,-4.16053 -3.12125,-0.58561 -3.4214,-0.94895 -3.4214,-4.14192 0,-3.48543 -0.0156,-3.49748 -3.75,-2.89441 -2.0625,0.33307 -5.90235,1.0769 -8.53299,1.65296 -5.84073,1.27901 -10.41936,-0.25484 -11.82911,-3.96277 -0.51912,-1.36539 -0.81877,-2.57875 -0.66588,-2.69636 0.15289,-0.11761 1.17798,-0.7294 2.27798,-1.35955 1.64438,-0.94199 1.19986,-1.0433 -2.5,-0.56973 -5.57782,0.71395 -9,2.30962 -9,4.19646 0,0.91319 -0.5897,1.21172 -1.61579,0.81797 -2.01968,-0.77502 -17.97748,8.82366 -24.90129,14.97824 -4.2344,3.76396 -4.55215,4.27598 -2.11523,3.40857 1.57723,-0.56141 4.00042,-1.91174 5.38486,-3.00074 2.8259,-2.22286 5.62809,-2.63168 5.00369,-0.73001 -0.22573,0.6875 -1.90478,2.2625 -3.73122,3.5 -2.08538,1.41295 -2.70774,2.25 -1.6729,2.25 0.90633,0 1.64788,0.45 1.64788,1 0,0.55 -2.4199,1 -5.37756,1 -3.56009,0 -5.79829,0.50696 -6.62244,1.5 -1.55729,1.87642 -2.0255,1.87087 -4.77749,-0.0567 z M 153,222.88197 c 0,-0.55 -0.45,-0.72189 -1,-0.38197 -0.55,0.33992 -1,1.06803 -1,1.61803 0,0.55 0.45,0.72189 1,0.38197 0.55,-0.33992 1,-1.06803 1,-1.61803 z M 195.03545,195 c 1.66396,-5.56203 3.92984,-20.59594 3.95635,-26.25 0.007,-1.39765 -0.86089,-1.75 -4.30826,-1.75 h -4.31647 l 0.75983,6.25 c 0.92439,7.60353 0.055,19.85845 -1.78349,25.14103 -1.05923,3.04348 -1.09222,4.20671 -0.15142,5.3403 1.03763,1.25027 1.38788,1.19658 2.55084,-0.39103 0.74143,-1.01217 2.22311,-4.7653 3.29262,-8.3403 z m -24.25394,-21.98966 c -0.23683,-5.45964 -0.58344,-6.54728 -2.18385,-6.85266 -1.7899,-0.34155 -1.86186,0.13068 -1.21751,7.98966 0.37665,4.59396 0.99008,10.82766 1.36317,13.85266 l 0.67834,5.5 0.82068,-7 c 0.45137,-3.85 0.694,-9.92035 0.53917,-13.48966 z m 12.47985,-29.42347 c -0.42585,-2.22769 -0.70337,-2.33247 -3.61133,-1.36352 -4.89586,1.63133 -5.78943,3.13289 -1.40003,2.35263 2.36684,-0.42073 3.75,-0.28105 3.75,0.37871 0,0.57492 0.3876,1.04531 0.86133,1.04531 0.47373,0 0.65374,-1.08591 0.40003,-2.41313 z m -0.49697,-6.85717 c 4.91074,-3.72674 5.24664,-4.25483 5,-7.86095 -0.1562,-2.28397 -0.77588,-3.86642 -1.51439,-3.86728 -0.6875,-8.1e-4 -1.25,-0.65608 -1.25,-1.45616 0,-0.87076 -1.40492,-1.71825 -3.5,-2.11129 -1.925,-0.36113 -3.5,-1.08685 -3.5,-1.6127 0,-0.52585 -0.92159,-0.66359 -2.04799,-0.30609 -1.12639,0.3575 -2.68868,0.11827 -3.47176,-0.53162 -1.1218,-0.93101 -2.17211,-0.71914 -4.95201,0.99894 -3.25245,2.01012 -3.52824,2.55944 -3.52824,7.02758 0,2.97512 0.57929,5.4263 1.5,6.34701 0.825,0.825 1.5,2.37705 1.5,3.44899 0,2.22931 1.6064,3.79574 4.5,4.38804 3.32563,0.68073 5.75141,-0.28069 11.26439,-4.46447 z M 170,139 c 0,-0.55 0.45,-1 1,-1 0.55,0 1,0.45 1,1 0,0.55 -0.45,1 -1,1 -0.55,0 -1,-0.45 -1,-1 z m 7,-2.92668 C 177,134.64223 177.64223,134 179.07332,134 c 2.56265,0 2.27193,3.30983 -0.3348,3.81184 -1.2,0.2311 -1.73852,-0.30742 -1.73852,-1.73852 z m -12,-6.0143 c 0,-1.06754 0.40285,-2.18996 0.89522,-2.49426 1.0746,-0.66414 2.34765,2.23325 1.54901,3.52548 C 166.459,132.68437 165,132.06881 165,130.05902 Z m 4.01531,0.19098 c 0.008,-0.9625 0.45153,-2.425 0.98469,-3.25 0.7356,-1.13826 0.97307,-0.71622 0.98469,1.75 0.008,1.7875 -0.43469,3.25 -0.98469,3.25 -0.55,0 -0.99311,-0.7875 -0.98469,-1.75 z M 176,130.05902 c 0,-2.5151 1.6142,-3.50678 2.39522,-1.47149 0.95799,2.49651 0.7177,3.41247 -0.89522,3.41247 -0.825,0 -1.5,-0.87344 -1.5,-1.94098 z M 76.74476,254.36142 C 74.410142,251.26021 69.2375,244.99775 65.25,240.44486 61.2625,235.89196 58,231.89395 58,231.56038 c 0,-2.75764 12.657315,10.90005 21.027682,22.68962 5.271188,7.42441 3.294957,7.52086 -2.282922,0.11142 z M 269,258.5 c 0,-0.825 0.45,-1.5 1,-1.5 0.55,0 1,0.675 1,1.5 0,0.825 -0.45,1.5 -1,1.5 -0.55,0 -1,-0.675 -1,-1.5 z m 4,-2.15533 c 0,-2.64563 2.49487,-4.97101 3.53233,-3.29236 0.39071,0.63218 -0.24423,2.10403 -1.41097,3.27078 L 273,258.44444 Z m -4.36052,-1.03852 C 267.3516,254.01826 268.00325,250 269.5,250 c 0.92366,0 1.5,0.93789 1.5,2.44098 0,2.50921 -1.22707,3.99861 -2.36052,2.86517 z M 285.25,239.41175 c -3.4375,-2.49112 -6.25251,-5.06535 -6.25558,-5.72053 -0.003,-0.65517 -0.53988,-2.99122 -1.19292,-5.19122 l -1.18734,-4 -0.67544,3.5 c -0.50076,2.59484 -0.70948,1.49572 -0.80708,-4.25 -0.1047,-6.16372 -0.43866,-7.75 -1.63164,-7.75 -0.93468,0 -1.5,-0.94539 -1.5,-2.50847 0,-2.26551 0.19569,-2.38659 2.02043,-1.25 2.01522,1.25523 3.45691,4.98868 4.60132,11.91573 0.57805,3.49894 0.92397,3.77388 7.99123,6.35145 4.06286,1.48181 7.38702,3.12887 7.38702,3.66013 0,0.53127 -0.7875,0.7374 -1.75,0.45807 -6.01917,-1.74682 -10.51357,-2.69667 -10.90547,-2.30477 -0.24947,0.24947 2.12328,2.41655 5.27278,4.81572 5.311,4.04572 7.70121,6.90288 5.71602,6.83267 -0.45833,-0.0162 -3.64583,-2.06766 -7.08333,-4.55878 z M 66,232.33343 c -2.844795,-0.82417 -5.415235,-5.57795 -5.250452,-9.71021 0.180109,-4.51658 1.556774,-6.27709 5.877477,-7.51625 3.855454,-1.10573 8.920054,0.89064 9.872509,3.89156 1.024729,3.22864 -0.373112,9.19151 -2.754827,11.75147 -1.969969,2.1174 -4.274945,2.58866 -7.744707,1.58343 z M 251.11005,225.75 c -0.0605,-2.0625 -0.60819,-3.75 -1.21704,-3.75 -0.60884,0 -0.83192,-0.71681 -0.49573,-1.5929 3.00283,-7.82527 1.24571,-8.3834 -10.53752,-3.34716 -5.08853,2.17488 -10.73865,4.36484 -12.55582,4.86658 -3.52727,0.97393 -4.47098,-0.1474 -1.55394,-1.84642 1.37928,-0.80336 1.43224,-1.02862 0.25,-1.06335 -0.825,-0.0242 -2.5125,-0.3154 -3.75,-0.64704 -1.9137,-0.51285 -2.25,-0.21188 -2.25,2.01366 0,3.32872 -1.76324,3.40815 -2.58936,0.11663 -0.51499,-2.05192 -1.23534,-2.5 -4.01905,-2.5 -4.73281,0 -4.23968,-1.71458 0.77856,-2.70699 4.02598,-0.79617 4.24204,-1.03777 6.25,-6.9886 1.14392,-3.39016 2.48905,-6.53303 2.98918,-6.98417 0.52098,-0.46993 0.68858,-0.17963 0.39244,0.67976 -0.28429,0.825 -1.12344,3.8913 -1.86478,6.81401 -1.66177,6.55144 -1.025,7.14885 7.64314,7.17068 9.37555,0.0236 15.966,-3.16799 26.61375,-12.88841 5.08043,-4.63797 9.693,-8.07213 10.6059,-7.89632 1.46963,0.28302 2.60244,3.02543 4.56733,11.05697 0.41456,1.69453 0.28125,2.65792 -0.34595,2.5 -0.6108,-0.15379 -1.21397,3.31512 -1.50258,8.64152 -0.75335,13.90348 -1.75594,11.59503 -1.36759,-3.14886 0.28202,-10.70716 0.0867,-13.25033 -1.01762,-13.25 -0.87038,2.6e-4 -1.17836,-0.71953 -0.84816,-1.98224 0.68873,-2.6337 -1.64283,-1.39389 -5.9249,3.15057 -3.67936,3.90483 -4.16077,5.24013 -6.42897,17.83208 -1.12422,6.2411 -1.74899,8.21359 -1.82129,5.75 z M 253,211 c 0,-0.55 -0.42344,-1 -0.94098,-1 -0.51754,0 -1.2191,0.45 -1.55902,1 -0.33992,0.55 0.0835,1 0.94098,1 0.85746,0 1.55902,-0.45 1.55902,-1 z m -120.7674,12.5 c -0.64448,-1.1 -1.18547,-1.4375 -1.20219,-0.75 C 131.01368,223.4375 130.55,224 130,224 c -1.44685,0 -1.2313,-3.74 0.25,-4.33772 0.71667,-0.28918 0.46778,-0.53807 -0.58333,-0.58333 -2.41401,-0.10396 -1.58412,-2.49373 0.99916,-2.87721 3.14141,-0.46633 4.78391,2.24554 3.67532,6.06815 -0.88055,3.03625 -1.00709,3.11008 -2.10855,1.23011 z m 1.27748,-9.48369 C 132.77253,212.82294 133.70865,211 135.05902,211 c 1.2168,0 1.22469,2.70662 0.0101,3.45729 -0.512,0.31644 -1.21356,0.11799 -1.55902,-0.44098 z m 91.1294,-11.71016 c -1.07067,-1.07067 -0.71948,-3.92415 0.85436,-6.94184 l 1.49384,-2.86431 0.006,4.69098 c 0.006,4.45001 -0.94774,6.52179 -2.35436,5.11517 z m 5,-3 c -1.20933,-1.20933 -0.6377,-6.06274 0.86052,-7.30615 1.21377,-1.00734 1.5,-0.97346 1.5,0.17756 0,0.78234 -0.54,1.96244 -1.2,2.62244 -0.93333,0.93333 -0.93333,1.2 0,1.2 0.66,0 1.2,0.64844 1.2,1.44098 0,1.67065 -1.42728,2.79841 -2.36052,1.86517 z M 226,190 c 0,-1.1 0.45,-2 1,-2 0.55,0 1,0.9 1,2 0,1.1 -0.45,2 -1,2 -0.55,0 -1,-0.9 -1,-2 z M 74.44113,186.5318 c -1.067622,-0.8075 -3.17863,-1.4825 -4.69113,-1.5 -3.277909,-0.0379 -3.354118,-0.52869 -0.746262,-4.80597 C 70.101682,178.42504 71,176.04215 71,174.93052 c 0,-1.78135 0.444919,-1.94609 3.75,-1.38851 6.950419,1.17254 6.901311,1.12729 7.023039,6.47133 0.08608,3.77924 -0.243481,4.98666 -1.361111,4.98666 -0.811084,0 -1.733719,0.675 -2.050302,1.5 -0.720452,1.87747 -1.472246,1.88357 -3.920496,0.0318 z m 222.0566,-15.53547 c -0.34116,-0.55202 -1.78722,-0.71079 -3.21345,-0.35283 -2.50521,0.62877 -2.56742,0.53563 -1.83444,-2.74633 0.41728,-1.86844 0.69227,-5.10631 0.61108,-7.19527 l -0.14762,-3.79809 2.8986,1.49892 c 2.3277,1.2037 3.61627,1.27866 6.54249,0.38058 4.23885,-1.30094 5.23325,-0.74984 3.72663,2.0653 -0.59456,1.11095 -1.08102,3.65482 -1.08102,5.65304 0,3.10183 -0.27516,3.54579 -1.88158,3.03594 -1.18748,-0.3769 -2.09812,-0.0329 -2.46861,0.93261 -0.67001,1.746 -2.23655,2.00748 -3.15208,0.52613 z M 2,161 c 0,-0.5996 3.9803277,-1 9.940983,-1 5.548633,0 10.214057,0.44184 10.559017,1 0.397118,0.64255 -3.156282,1 -9.940983,1 C 6.186339,162 2,161.60353 2,161 Z m 21,-17 v -5 h -8 c -4.666667,0 -8,-0.41667 -8,-1 0,-0.58333 3.333333,-1 8,-1 h 8 V 126.5 116 h -4.059017 c -2.451367,0 -3.814233,-0.39607 -3.440983,-1 0.339919,-0.55 2.166476,-1 4.059017,-1 H 23 v -7.94098 c 0,-4.36754 0.45,-8.219101 1,-8.55902 0.636915,-0.393635 1,2.489616 1,7.94098 V 114 h 3.940983 c 2.167541,0 4.219098,0.45 4.559017,1 0.377898,0.61145 -1.173911,1 -3.99387,1 h -4.611904 l 0.109676,11.25 C 25.1859,145.91856 25.043672,149 24,149 c -0.55,0 -1,-2.25 -1,-5 z m 321.10142,0 c -0.14771,-3.025 -0.19742,-10.5625 -0.11048,-16.75 L 344.14902,116 h -4.57451 C 337.05853,116 335,115.55 335,115 c 0,-0.55 2.025,-1 4.5,-1 H 344 V 103.5 93 h -10 c -6,0 -10,-0.4 -10,-1 0,-0.6 4,-1 10,-1 9.66933,0 10.00384,-0.0744 10.116,-2.25 0.10381,-2.013433 0.16864,-2.042339 0.61667,-0.274933 0.27537,1.086287 1.23567,2.534476 2.134,3.218197 1.49748,1.139735 1.48778,1.245774 -0.11667,1.274933 C 345.19646,92.99643 345,94.178782 345,103.5 V 114 h 6.44098 c 3.54254,0 6.7191,0.45 7.05902,1 0.38973,0.63059 -1.98962,1 -6.44098,1 H 345 v 10.5 10.5 h 11 c 6.66667,0 11,0.39394 11,1 0,0.60577 -4.31591,1 -10.94774,1 h -10.94774 l -0.36728,5.25 -0.36728,5.25 z M 101.42618,111.23475 c -0.0737,-6.39465 -0.0714,-6.39993 2.5,-5.73503 3.17444,0.82082 6.12076,0.97595 8.00207,0.42133 1.01357,-0.2988 1.66129,0.86908 2.23089,4.02243 1.04354,5.77719 -0.71756,7.53025 -7.65914,7.62417 l -5,0.0677 z M 57.463589,107.75 c -1.911598,-3.9875 -3.246271,-6.04008 -2.965941,-4.56129 0.623876,3.29106 -0.787131,4.37895 -2.917028,2.24905 -2.762898,-2.7629 -1.29098,-9.943471 2.720765,-13.272924 1.930883,-1.602491 2.623496,-0.632305 7.199771,10.085164 2.0549,4.8125 4.301204,8.75 4.991786,8.75 0.690583,0 3.204648,-0.68766 5.586812,-1.52814 5.37445,-1.89622 7.191444,-1.3792 6.044954,1.72006 -1.002267,2.70939 -3.664172,3.57491 -11.405097,3.7084 L 60.939223,115 Z m 8.118116,-0.83527 C 61.261254,101.78017 62.542922,92 67.536245,92 69.511761,92 71,95.246818 71,99.556703 c 0,3.061577 0.239719,3.489237 1.410972,2.517187 2.206059,-1.83087 3.036033,0.59495 1.175224,3.4349 -0.872407,1.33146 -2.449428,2.88283 -3.504491,3.44748 -1.577692,0.84436 -2.37669,0.48187 -4.5,-2.04154 z M 67.662281,96.75 c -0.277413,-0.6875 -0.504386,-0.125 -0.504386,1.25 0,1.375 0.226973,1.9375 0.504386,1.25 0.277412,-0.6875 0.277412,-1.8125 0,-2.5 z M 78.25,102.30163 C 76.18456,101.52784 76.751246,98 78.940983,98 c 1.067541,0 2.178126,0.383705 2.467967,0.852678 0.782573,1.266232 -1.712836,3.990722 -3.15895,3.448952 z m 4.237679,-4.956808 C 80.409473,95.266616 79,91.625443 79,88.3349 79,85.546655 84.808702,79 87.28265,79 c 1.175771,0 4.199862,4.878281 7.509356,12.113638 C 95.056197,91.691226 85.582018,99 84.569114,99 84.334673,99 83.398027,98.25517 82.487679,97.344822 Z m 4.35413,-8.368765 c -0.571308,-1.638854 -1.444431,-3.230464 -1.940275,-3.536912 -1.333071,-0.823884 -1.09624,4.966149 0.258547,6.320936 1.897534,1.897534 2.79551,0.410975 1.681728,-2.784024 z M 26.5,92 c 0.339919,-0.55 4.389919,-1 9,-1 4.610081,0 8.660081,0.45 9,1 0.39566,0.640191 -2.842621,1 -9,1 -6.157379,0 -9.39566,-0.359809 -9,-1 z M 219,91.659193 c 0,-1.0082 0.55269,-1.384335 1.5,-1.020819 1.99249,0.76459 1.90143,-0.53732 -0.2,-2.859372 -0.935,-1.033163 -1.7,-3.347736 -1.7,-5.143496 0,-3.77304 3.75295,-9.615066 6.21809,-9.679399 0.92505,-0.02414 3.48191,-0.691128 5.68191,-1.482193 3.61075,-1.298335 4.12164,-1.275465 5.25,0.235023 1.84757,2.47327 1.6386,14.759608 -0.28374,16.681947 -1.6061,1.606103 -6.37831,3.199442 -12.71626,4.245693 -3.02584,0.499498 -3.75,0.310757 -3.75,-0.977384 z M 46,79.5 c 0,-9.165132 -0.07931,-9.502386 -2.25,-9.56768 L 41.5,69.86464 43.75,68.779506 C 44.9875,68.182682 46,66.863138 46,65.847186 46,64.831234 46.45,64 47,64 c 0.55,0 1,0.9 1,2 0,1.792992 0.666667,2 6.440983,2 3.542541,0 6.719098,0.45 7.059017,1 0.61851,1.00077 -2.964545,1.43523 -9.174754,1.112477 -1.746114,-0.09075 -3.508105,0.374379 -3.915535,1.033614 -0.40743,0.659236 -0.701942,4.946053 -0.65447,9.52626 C 47.802713,85.252558 47.427204,89 46.920777,89 46.41435,89 46,84.725 46,79.5 Z M 321.20929,79.870341 321,70.240681 l -4.25,-0.0017 C 308.83633,70.235913 307,70.002555 307,69 c 0,-0.570712 2.98258,-1 6.94774,-1 h 6.94774 l 0.36728,-5.25 0.36728,-5.25 0.18498,5.195209 0.18498,5.195209 4.75,0.304791 c 2.6125,0.167635 4.62808,0.754791 4.47907,1.304791 -0.14902,0.55 -2.2703,0.893687 -4.71396,0.76375 L 322.07209,70.0275 321.74534,79.76375 321.41858,89.5 Z M 104.23925,85.75 c -1.23584,-1.536139 -3.22785,-10.700799 -3.27105,-15.049221 -0.0296,-2.979102 -0.13005,-3.071044 -1.450357,-1.327545 -0.866029,1.143615 -1.194451,2.993725 -0.843196,4.75 0.653119,3.265596 -1.033921,3.942491 -2.588122,1.038439 -3.214685,-6.006694 6.751255,-15.459593 12.854825,-12.193062 2.78566,1.490842 2.81035,8.384423 0.0449,12.531389 -1.55699,2.33477 -1.86296,3.942409 -1.37987,7.25 0.49328,3.377366 0.31458,4.25 -0.87036,4.25 -0.82011,0 -1.94364,-0.5625 -2.49674,-1.25 z M 108,70.035184 c 0,-2.011006 -0.6922,-3.335271 -2.15163,-4.116334 -1.90551,-1.019797 -2.06604,-0.938031 -1.40338,0.714816 0.72469,1.807567 1.32105,4.072949 1.4785,5.616334 C 105.96557,72.6625 106.45,73 107,73 c 0.55,0 1,-1.334167 1,-2.964816 z m 4.97525,9.399716 c -2.17233,-5.713654 -0.56224,-11.066229 4.1696,-13.861395 1.63594,-0.966371 3.38645,-2.840743 3.89004,-4.165272 1.86399,-4.902657 5.95794,-2.135062 5.97876,4.041767 0.0172,5.109585 0.92077,8.55 2.24544,8.55 0.65747,0 0.79929,-2.167318 0.39495,-6.035831 -0.51569,-4.933877 -0.34686,-6.144816 0.92476,-6.632783 2.14709,-0.823912 3.67206,0.979403 4.09496,4.842374 0.71823,6.560629 2.09266,4.790554 2.79114,-3.594592 0.39271,-4.714441 1.16694,-8.851635 1.72052,-9.193764 2.13051,-1.316727 4.31402,2.632782 4.36803,7.900834 0.0294,2.867569 0.41409,6.63096 0.85487,8.363091 0.70633,2.775701 0.52204,3.233788 -1.55345,3.861232 -1.29518,0.391547 -3.70487,1.278549 -5.35487,1.971118 -1.65,0.692568 -5.025,1.810763 -7.5,2.484877 -2.475,0.674115 -5.97777,1.857414 -7.78393,2.629554 -5.12541,2.191131 -8.1088,1.816236 -9.24082,-1.16121 z m 9.0495,-4 c 1.64204,-4.318887 1.0262,-5.084809 -1.55575,-1.9349 -2.85043,3.477448 -3.06499,4.5 -0.94425,4.5 0.83861,0 1.96361,-1.154295 2.5,-2.5651 z m -3.04006,-6.243917 C 118.99311,68.471024 118.55,68.160081 118,68.5 c -0.55,0.339919 -0.99311,1.603976 -0.98469,2.809017 0.0125,1.781234 0.1966,1.910459 0.98469,0.690983 0.53316,-0.825 0.97627,-2.089058 0.98469,-2.809017 z M 277,74 c -1.375,-1.075541 -3.63737,-1.965534 -5.02749,-1.977764 -1.39013,-0.01223 -3.49798,-0.701991 -4.68413,-1.532804 -1.25548,-0.879369 -3.99882,-1.440888 -6.56529,-1.343812 -5.28991,0.200089 -6.73469,-0.546243 -6.68765,-3.454637 C 254.0989,61.767237 260.42175,53 263.18806,53 264.69284,53 265,53.837606 265,57.940983 c 0,2.717541 0.42862,5.205886 0.95249,5.529657 0.52388,0.32377 3.03334,-0.999672 5.5766,-2.940983 6.03509,-4.606691 7.81762,-4.625162 7.28647,-0.07551 l -0.40325,3.454149 3.27869,-2.026346 c 3.53326,-2.183675 6.7215,-1.855341 7.7393,0.797019 0.85571,2.229939 -1.95712,6.164164 -4.94295,6.913559 C 281.7827,70.271355 281.07375,72 283.5,72 c 1.99134,0 1.92815,2.621726 -0.0818,3.393011 C 280.90647,76.356858 279.66998,76.088492 277,74 Z m -5.5,-8 c 0.99549,-1.1 1.58498,-2 1.30998,-2 -0.275,0 -1.31449,0.9 -2.30998,2 -0.99549,1.1 -1.58498,2 -1.30998,2 0.275,0 1.31449,-0.9 2.30998,-2 z M 286,64.770566 c 0,-0.585304 -0.63541,-0.488115 -1.5,0.229434 -0.825,0.684689 -1.5,1.400666 -1.5,1.59106 0,0.190394 0.675,0.08715 1.5,-0.229434 0.825,-0.316582 1.5,-1.032559 1.5,-1.59106 z M 259.96456,61.627555 C 259.93119,59.623491 259.84618,59.645109 258.5,62 c -1.87209,3.274887 -1.87209,4.553701 0,3 0.825,-0.684689 1.48405,-2.202289 1.46456,-3.372445 z m -109.57197,9.198656 c -0.91768,-1.484836 2.646,-11.899562 4.98765,-14.576211 2.46227,-2.81454 5.2101,-2.883973 6.66344,-0.168374 0.91646,1.712412 0.65413,2.776621 -1.479,6 C 158.09233,65.817604 158.06538,66 159.98581,66 c 2.47603,0 2.65565,2.601175 0.26419,3.825711 -2.91177,1.490956 -9.16221,2.125359 -9.85741,1.0005 z m 24.05893,-9.490208 C 174.83796,57.026201 175.37512,52.375 175.6452,51 c 0.47425,-2.414404 0.43737,-2.433539 -1.07707,-0.55887 C 173.70566,51.508751 173,53.458751 173,54.774463 c 0,3.486356 -2.43617,2.210936 -2.80338,-1.467666 C 169.77903,49.123456 174.60653,45 179.92174,45 c 8.36336,0 9.44795,8.013416 1.88706,13.942339 -1.89668,1.487292 -2.78237,3.209666 -3,5.833993 -0.25292,3.049807 -0.7387,3.784473 -2.68435,4.059671 l -2.37554,0.336003 z m 7.94149,-6.91779 c 1.14548,-2.985077 0.60472,-5.349061 -1.47866,-6.46405 -1.1471,-0.613912 -2.3471,-0.854744 -2.66666,-0.535183 C 177.92813,47.738541 178.19167,48 178.83333,48 179.52778,48 180,49.619048 180,52 c 0,4.041204 1.27557,5.33021 2.39301,2.418213 z m 54.31856,13.11499 c -1.93252,-1.00802 -3.51386,-1.178671 -5.15174,-0.555951 -3.23739,1.230856 -13.80324,0.107053 -15.18473,-1.615076 -0.6187,-0.771251 -0.95482,-3.530752 -0.74695,-6.132225 L 216.00611,54.5 213.415,59.995406 c -1.42511,3.022473 -3.00641,5.752072 -3.51399,6.065775 -0.50759,0.313704 -2.83046,0.306793 -5.16195,-0.01536 L 200.5,65.460097 200.70039,60.425634 C 200.97659,53.48657 202.4452,50 205.09188,50 c 1.73689,0 2.0248,0.425009 1.52422,2.25 -0.33944,1.2375 -0.89947,4.05 -1.24449,6.25 -0.52087,3.321188 -0.39969,3.785574 0.71407,2.736462 0.73777,-0.694946 2.04329,-3.169946 2.90115,-5.5 1.49942,-4.072565 1.74018,-4.248154 6.22334,-4.538675 5.65128,-0.366219 7.11611,1.42166 5.83148,7.117527 -1.02962,4.565211 0.34262,4.798833 2.55326,0.434686 2.55756,-5.049033 4.47057,-6.75 7.59146,-6.75 3.21013,0 4.80965,2.447534 2.82141,4.317217 -0.97075,0.912872 -1.36555,0.888009 -1.73003,-0.108955 C 231.38701,53.771805 229,57.064329 229,60.729434 c 0,2.766605 0.3259,3.359483 1.58179,2.877555 C 231.45177,63.273145 232.30956,63 232.48798,63 c 0.17843,0 1.91243,-2.210411 3.85335,-4.912024 3.90885,-5.440835 7.0786,-7.096621 9.31127,-4.863945 1.96399,1.963989 0.20468,6.428245 -3.13252,7.948775 C 239.29706,62.64131 239.28741,64 242.5,64 c 3.09473,0 3.20687,1.391484 0.27749,3.443296 -2.70066,1.891615 -2.61425,1.890335 -6.06592,0.08991 z M 244,55.755111 c 0,-0.557827 -0.66326,-0.449544 -1.5,0.244889 -0.825,0.684689 -1.5,1.694889 -1.5,2.244889 0,0.557827 0.66326,0.449544 1.5,-0.244889 0.825,-0.684689 1.5,-1.694889 1.5,-2.244889 z m 4.21613,12.399627 c -1.49574,-0.94907 -0.6816,-3.762144 1.31,-4.52639 1.50329,-0.576869 2.99722,2.715829 1.9794,4.362703 -0.74824,1.210683 -1.57453,1.2518 -3.2894,0.163687 z m -59.94011,-8.621372 c 0.31059,-4.106649 0.8521,-7.931649 1.20336,-8.5 0.91568,-1.481603 6.80789,-1.275015 8.98227,0.31493 2.40601,1.759319 1.04682,3.982059 -2.07059,3.386128 -2.02029,-0.386203 -2.52408,0.08457 -3.37721,3.15583 -0.55148,1.98536 -1.00521,4.307246 -1.00827,5.159746 -0.006,1.724765 -1.89339,3.95 -3.34992,3.95 -0.55855,0 -0.71364,-3.050289 -0.37964,-7.466634 z M 68.647684,54.500597 C 68.78932,48.266204 68.697181,48 66.397684,48 63.2835,48 63.333433,46.624738 66.5,45.181954 67.875,44.555462 69.013684,43.47073 69.030409,42.771439 69.04799,42.036323 69.490774,42.238191 70.080099,43.25 70.91559,44.684451 72.532931,45 79.04969,45 83.422361,45 87,45.401855 87,45.893011 87,47.396111 84.144243,48 77.036172,48 h -6.800253 l 0.145567,6.5 c 0.08555,3.819917 -0.272331,6.500246 -0.86796,6.500597 -0.595956,3.51e-4 -0.952681,-2.67763 -0.865842,-6.5 z M 298,54.5 V 48 h -6.91821 C 283.86318,48 281,47.401626 281,45.893011 281,45.401855 284.825,45 289.5,45 h 8.5 v -4.166667 c 0,-4.798671 1.27977,-4.434581 1.49879,0.426399 0.12678,2.813781 0.53133,3.276359 3.0736,3.514474 C 311.08579,45.57159 312.99386,48 305.10699,48 c -5.58164,0 -5.81593,0.324323 -5.59855,7.75 0.0845,2.8875 -0.22028,5.25 -0.67737,5.25 C 298.37398,61 298,58.075 298,54.5 Z m -169.61507,4.060739 c -0.30376,-0.791594 -0.15675,-2.146058 0.32669,-3.009921 0.76251,-1.362516 1.13302,-1.384905 2.79594,-0.168951 1.62922,1.191315 1.71661,1.643097 0.58225,3.00992 -1.65355,1.99241 -2.9819,2.052986 -3.70488,0.168952 z M 204.66667,48.333333 C 203.17463,46.841294 204.04887,44 206,44 c 1.46667,0 2,0.666667 2,2.5 0,2.353015 -1.81526,3.351407 -3.33333,1.833333 z M 91,35.118034 c 0,-4.4 0.45,-8.278115 1,-8.618034 0.634836,-0.39235 1,2.303277 1,7.381966 0,4.4 -0.45,8.278115 -1,8.618034 -0.634836,0.39235 -1,-2.303277 -1,-7.381966 z m 184.75,7.305375 C 275.3375,42.007201 275,37.916667 275,33.333333 V 25 H 264.5 254 v 2.5 c 0,1.375 -0.45,2.5 -1,2.5 -0.55,0 -1,-1.125 -1,-2.5 0,-2.347472 -0.32031,-2.500833 -5.25,-2.513655 C 240.73919,24.970712 237,24.164207 237,22.883369 237,22.397516 240.375,22 244.5,22 h 7.5 v -5.059017 c 0,-3.118034 0.38367,-4.821897 1,-4.440983 0.55,0.339919 1,2.576662 1,4.970541 v 4.352507 l 10.95253,0.338476 c 6.0239,0.186162 11.3114,0.788476 11.75,1.338476 1.00579,1.261231 0.0651,19.950151 -0.95253,18.923409 z M 114,27.5 c 0,-2.484194 -0.0585,-2.500201 -9.25,-2.531803 -8.351574,-0.02871 -9.061464,-0.174406 -7.30887,-1.5 C 98.736743,22.488244 101.8128,22 106.69113,22 H 114 v -3.440983 c 0,-1.892541 0.45,-3.719098 1,-4.059017 0.60393,-0.37325 1,0.989616 1,3.440983 V 22 h 7.5 c 4.125,0 7.5,0.397516 7.5,0.883369 0,1.280838 -3.73919,2.087343 -9.75,2.102976 -4.92969,0.01282 -5.25,0.166183 -5.25,2.513655 0,1.375 -0.45,2.5 -1,2.5 -0.55,0 -1,-1.125 -1,-2.5 z m 23,-13.440983 c 0,-3.817541 0.45,-7.2190983 1,-7.559017 0.63298,-0.3912027 1,2.1562824 1,6.940983 C 139,17.813661 138.57847,21 138,21 c -0.57062,0 -1,-2.980328 -1,-6.940983 z M 229,13 c 0,-4.6666667 0.41667,-8 1,-8 0.58333,0 1,3.3333333 1,8 0,4.666667 -0.41667,8 -1,8 -0.58333,0 -1,-3.333333 -1,-8 z M 160,9.559017 C 160,5.186339 160.42153,2 161,2 c 0.57062,0 1,2.9803277 1,6.940983 0,3.817541 -0.45,7.219098 -1,7.559017 -0.63298,0.391203 -1,-2.156282 -1,-6.940983 z m 46.75,6.865772 C 206.3375,16.007822 206,12.591667 206,8.8333333 V 2 H 195.5 185 v 6.5 c 0,3.666667 -0.4359,6.5 -1,6.5 -0.5641,0 -1,-2.833333 -1,-6.5 V 2 L 173.75,1.8663871 C 165.46082,1.746653 165.01936,1.65188 169.5,0.95399294 c 6.17245,-0.96139778 29.56512,-1.04819784 35,-0.12986984 L 208.5,1.5 208,9.3414553 c -0.275,4.3128007 -0.8375,7.5003007 -1.25,7.0833337 z"
       id="path5"
       clip-path="url(#clipPath37)"
       transform="matrix(0.22461066,0,0,0.22461066,-5.0041676,-5.1050216)" />
  </g>
</svg>
