<?xml version="1.0" encoding="UTF-8" standalone="no"?>
<!-- Created with Inkscape (http://www.inkscape.org/) -->

<svg
   version="1.1"
   id="svg1"
   width="70"
   height="70"
   viewBox="0 0 70 70"
   sodipodi:docname="symboleDeVenus.svg"
   inkscape:version="1.4 (86a8ad7, 2024-10-11)"
   inkscape:export-filename="venus.png"
   inkscape:export-xdpi="96"
   inkscape:export-ydpi="96"
   xmlns:inkscape="http://www.inkscape.org/namespaces/inkscape"
   xmlns:sodipodi="http://sodipodi.sourceforge.net/DTD/sodipodi-0.dtd"
   xmlns="http://www.w3.org/2000/svg"
   xmlns:svg="http://www.w3.org/2000/svg">
  <defs
     id="defs1">
    <inkscape:path-effect
       effect="spiro"
       id="path-effect12"
       is_visible="true"
       lpeversion="1" />
    <inkscape:path-effect
       effect="spiro"
       id="path-effect2"
       is_visible="true"
       lpeversion="1" />
    <clipPath
       clipPathUnits="userSpaceOnUse"
       id="clipPath6">
      <path
         id="path6"
         style="display:inline;fill:#d8d6be;fill-opacity:0.228916;fill-rule:evenodd;stroke-width:10;stroke-linecap:round;stroke-linejoin:round;stroke-miterlimit:100"
         d="M 196.36719,23.423828 A 163.77631,142.73422 0 0 0 32.591797,166.1582 163.77631,142.73422 0 0 0 168.80078,306.63086 v 36.25781 l -43.42773,0.75586 -0.37696,41.16016 43.04883,0.75586 1.13281,12.83984 3.02149,4.9082 -34.74219,3.02149 -13.59375,3.02148 -8.62109,3.44532 0.66797,5.48437 26.83398,6.55273 c 8.5549,0.47609 17.1161,0.85368 25.67969,1.13282 18.6224,0.60701 37.25638,0.74863 55.88867,0.75586 1.00701,3.9e-4 2.01447,3.9e-4 3.02148,0 l 28.32227,-3.39844 21.90234,-5.66406 -0.37695,-5.28711 -16.23828,-4.91016 c -7.30029,-0.76077 -14.60092,-1.51588 -21.90234,-2.26562 -6.16757,-0.63332 -12.33554,-1.26323 -18.50391,-1.88868 l 2.64258,-17.37109 42.67187,-1.50977 -0.37695,-41.16211 -44.56055,0.37891 2.16016,-36.84961 A 163.77631,142.73422 0 0 0 360.14453,166.1582 163.77631,142.73422 0 0 0 196.36719,23.423828 Z" />
    </clipPath>
    <clipPath
       clipPathUnits="userSpaceOnUse"
       id="clipPath8">
      <path
         id="path8"
         style="display:inline;fill:#d8d6be;fill-opacity:0.228916;fill-rule:evenodd;stroke-width:10;stroke-linecap:round;stroke-linejoin:round;stroke-miterlimit:100"
         d="M 196.36719,23.423828 A 163.77631,142.73422 0 0 0 32.591797,166.1582 163.77631,142.73422 0 0 0 168.80078,306.63086 v 36.25781 l -43.42773,0.75586 -0.37696,41.16016 43.04883,0.75586 1.13281,12.83984 3.02149,4.9082 -34.74219,3.02149 -13.59375,3.02148 -8.62109,3.44532 0.66797,5.48437 26.83398,6.55273 c 8.5549,0.47609 17.1161,0.85368 25.67969,1.13282 18.6224,0.60701 37.25638,0.74863 55.88867,0.75586 1.00701,3.9e-4 2.01447,3.9e-4 3.02148,0 l 28.32227,-3.39844 21.90234,-5.66406 -0.37695,-5.28711 -16.23828,-4.91016 c -7.30029,-0.76077 -14.60092,-1.51588 -21.90234,-2.26562 -6.16757,-0.63332 -12.33554,-1.26323 -18.50391,-1.88868 l 2.64258,-17.37109 42.67187,-1.50977 -0.37695,-41.16211 -44.56055,0.37891 2.16016,-36.84961 A 163.77631,142.73422 0 0 0 360.14453,166.1582 163.77631,142.73422 0 0 0 196.36719,23.423828 Z" />
    </clipPath>
    <clipPath
       clipPathUnits="userSpaceOnUse"
       id="clipPath26">
      <path
         id="path27"
         style="display:inline;fill:#d8d6be;fill-opacity:0.228916;fill-rule:evenodd;stroke-width:10;stroke-linecap:round;stroke-linejoin:round;stroke-miterlimit:100"
         d="M 196.36719,23.423828 A 163.77631,142.73422 0 0 0 32.591797,166.1582 163.77631,142.73422 0 0 0 46.886719,223.29492 c 2.163904,-13.95101 6.033814,-22.53483 18.84375,-5.27344 1.7602,2.37187 4.31585,5.17009 7.15039,8.47266 4.658208,4.63997 9.368395,9.22739 14.054688,13.83984 4.797124,4.77917 9.30587,9.82591 14.496093,14.18946 4.22644,3.19835 8.97888,5.58059 13.6582,8.02734 6.87481,3.48661 14.19891,5.86594 21.50586,8.2461 7.39163,2.5371 14.82392,4.95605 21.9375,8.21874 5.0994,2.33889 6.26441,3.11366 11.18946,5.85352 2.06521,1.38043 4.19039,2.67401 6.19531,4.14063 0.85809,0.6277 1.67042,1.34109 2.51172,2.0039 2.23498,-3.00259 5.83394,-4.83208 9.03515,-6.81445 4.73957,-2.93499 12.16163,-4.17438 17.64844,-5.11328 10.23841,-1.23016 20.56157,-1.51786 30.86133,-1.78125 4.72651,-0.2052 9.46615,-0.0366 14.19141,-0.27149 0.30157,-0.015 3.11078,-0.29273 3.20898,-0.30273 1.84133,-0.4213 3.58456,-1.17846 5.34766,-1.84961 4.2286,-2.20266 8.59714,-4.14391 13.01757,-5.93164 5.67047,-2.2532 11.59585,-3.75417 17.31641,-5.86328 3.33916,-1.34598 6.8665,-2.24279 10.14648,-3.73633 1.05508,-0.48043 2.07472,-1.03373 3.11329,-1.54883 1.17815,-0.79468 2.65199,-1.20562 3.70703,-2.18359 0.0416,-0.0381 0.003,-0.12441 0.0449,-0.16211 2.99829,-2.72261 0.28927,-0.0239 2.08984,-1.84766 2.79569,-2.7275 5.24868,-5.73271 7.59961,-8.8418 2.56432,-3.70743 4.68762,-7.71261 6.82813,-11.67578 1.63303,-3.04971 3.07926,-6.21695 4.22461,-9.48437 0.40477,-1.15472 0.98298,-3.28244 1.29297,-4.38281 1.23507,-5.45079 2.00344,-10.99344 2.59375,-16.54688 0.98939,-8.39412 1.68853,-16.81933 2.58984,-25.22266 0.91024,-7.65801 1.89824,-15.30604 2.64453,-22.98242 0.0692,-0.83085 0.27431,-2.90188 0.25781,-3.8789 -0.001,-0.0784 -0.0626,-0.28299 -0.0977,-0.21289 -0.089,0.17799 0.0453,0.44557 -0.0918,0.58984 -0.083,0.0873 -0.12271,-0.20846 -0.16211,-0.32227 -0.13473,-0.38937 -0.23836,-0.78915 -0.35742,-1.18359 -1.03098,-3.09749 -2.14295,-6.17715 -3.64453,-9.08203 -0.12935,-0.20704 -0.26453,-0.4109 -0.38867,-0.62109 -0.77691,-1.31538 -1.52817,-2.63898 -2.375,-3.91211 -0.57746,-0.86817 -0.56372,-0.89609 -0.41016,-0.45118 -1.756,-2.0005 -3.58917,-3.93187 -5.38281,-5.89843 -0.14134,-0.13896 -0.2587,-0.2337 -0.40235,-0.37696 -1.03685,-1.03398 -0.36943,-0.3371 -0.14257,-0.2207 0.18072,0.20004 0.36325,0.39848 0.54492,0.59766 18.45509,18.14436 17.29646,-0.1502 16.10547,-19.41993 -5.04752,-2.65534 -10.25333,-6.54213 -15.41993,-11.960932 -1.88345,-1.975393 -3.84026,-3.889808 -5.98632,-5.582032 -6.72105,-5.503202 -13.92304,-10.460454 -21.46875,-14.761718 -3.76571,-1.930183 -5.73077,-2.962898 -9.5586,-4.820313 -8.23208,-3.994531 -2.65727,-1.184898 -11.59375,-5.445313 -12.94941,-6.173552 2.73501,1.096976 -10.76953,-5.115234 -9.10019,-3.990079 -18.36029,-7.675875 -27.1718,-12.285156 C 223.12356,42.63107 215.3974,33.310457 212.84961,24.511719 a 163.77631,142.73422 0 0 0 -16.48242,-1.087891 z m 16.33593,38.447266 c 2.93686,-0.02794 5.87513,-0.01334 8.81055,0.08594 1.18223,0.03998 2.36138,0.110186 3.54297,0.166016 5.25065,0.403761 10.43246,1.41221 15.43555,3.056641 2.67132,0.878016 4.41598,1.633133 6.99609,2.679687 6.19195,2.774118 12.11047,6.191818 17.48438,10.345703 1.10689,0.855588 2.16254,1.774777 3.24414,2.66211 3.57916,3.08947 6.93909,6.431467 9.93554,10.091796 1.41937,1.73384 2.24142,2.892995 3.55469,4.673828 3.35312,4.435655 6.45943,9.038525 9.43945,13.730465 2.44613,4.00672 4.78295,8.08672 6.92774,12.26367 0.97759,1.90385 1.8754,3.79448 2.80273,5.72071 2.50802,5.16026 4.53135,10.52485 6.45313,15.92382 1.87244,5.17944 3.73731,10.36415 5.41211,15.61133 1.62287,5.53283 2.52904,11.26201 2.97461,17.00586 0.0933,1.20219 0.13658,2.40748 0.20508,3.61133 0.22501,5.39519 -0.28591,10.8038 -1.50391,16.06445 -0.82499,3.5632 -1.2666,4.59265 -2.42578,8.00782 -1.76623,4.66592 -3.80238,9.25999 -6.36719,13.54882 -0.49445,0.82682 -1.02741,1.63027 -1.54102,2.44532 -2.15271,3.21895 -4.71965,6.1443 -7.50781,8.82617 -1.42916,1.37468 -2.76122,2.52066 -4.24219,3.82422 -2.94919,2.54205 -5.95649,5.01956 -8.71289,7.77343 -1.97817,2.18537 -4.09441,4.22916 -6.25781,6.22852 -1.96173,1.70902 -3.88309,3.47602 -5.97266,5.03125 -0.52065,0.38751 -1.05729,0.7524 -1.58593,1.12891 -2.46865,1.73027 -5.06032,3.26791 -7.69922,4.7207 -2.00198,1.11901 -4.06648,2.14782 -6.20899,2.97266 -1.89108,0.72804 -2.51547,0.87825 -4.44531,1.46289 -5.44815,1.51876 -11.09721,2.01621 -16.71679,2.41211 -4.43914,0.26828 -8.88411,0.37742 -13.33008,0.45507 2.17539,9.24874 -7.23719,18.04089 -23.79492,12.55274 -1.77183,-0.58728 -3.54742,-1.16446 -5.32618,-1.73047 -3.79985,-1.07433 -7.64694,-1.83767 -11.55859,-2.38086 -4.21142,-0.68537 -8.47187,-0.99506 -12.67969,-1.71094 -2.71698,-0.6925 -3.80116,-0.79365 -6.37304,-2.26953 -1.28752,-0.73884 -2.53406,-1.70396 -3.64258,-2.80859 -4.70141,-1.48323 -9.38221,-3.07521 -13.91016,-5.03321 -1.02922,-0.44506 -2.04428,-0.92171 -3.06641,-1.38281 -4.73716,-2.42181 -9.36276,-5.07975 -13.78125,-8.04687 -2.78883,-1.87277 -3.9415,-2.77751 -6.61914,-4.76368 -6.58777,-4.99945 -12.44156,-10.86737 -18.14453,-16.83203 -4.021609,-4.28529 -8.097574,-8.53188 -11.732419,-13.1582 -0.750874,-0.95569 -1.464626,-1.93846 -2.197266,-2.9082 -1.759075,-2.39291 -3.445005,-4.83728 -5.261719,-7.1875 -0.559988,-0.72444 -1.144313,-1.4294 -1.701172,-2.15625 -1.859489,-2.42711 -2.140206,-2.86804 -3.890625,-5.33008 -2.614216,-3.68766 -4.816183,-7.65356 -6.347656,-11.91406 -0.998999,-2.77917 -1.141145,-3.73061 -1.824219,-6.59766 -0.848813,-4.28979 -1.257727,-8.66915 -1.09375,-13.04297 0.108892,-2.90452 0.269143,-3.63327 0.642578,-6.47656 0.740465,-4.44619 1.809432,-8.82882 2.878907,-13.20508 0.730988,-2.88107 1.302234,-5.80012 1.90039,-8.71094 0.514062,-2.60734 0.751211,-5.25524 0.939453,-7.90234 0.09108,-2.96138 0.358936,-5.90317 0.742188,-8.83984 0.568713,-4.07582 2.125772,-7.95562 4.339844,-11.41407 0.460449,-0.71924 0.976388,-1.40105 1.464844,-2.10156 2.509652,-3.44768 5.780039,-6.1897 9.037109,-8.89453 3.256146,-2.603719 6.708227,-4.939352 10.154293,-7.279294 2.89431,-1.939423 5.86543,-3.764006 8.86524,-5.535156 3.02582,-1.938203 6.33486,-3.330873 9.67578,-4.617188 3.66692,-1.379196 7.41962,-2.519709 11.14648,-3.724609 3.80879,-1.345932 7.67947,-2.499822 11.50586,-3.792969 4.54652,-1.592455 9.13919,-3.060642 13.65821,-4.730469 4.66585,-1.890407 9.51622,-3.23442 14.39843,-4.427734 3.18801,-0.736487 6.38025,-1.471836 9.60743,-2.019531 1.98685,-0.337195 3.15944,-0.479687 5.16015,-0.751953 6.41068,-0.783334 12.86802,-1.045074 19.31836,-1.244141 2.93512,-0.0654 5.87174,-0.134173 8.80859,-0.162109 z m 1.5254,27.419922 c -3.16501,-9.1e-5 -6.32973,0.06309 -9.49414,0.154296 -5.50198,0.166861 -11.01082,0.372902 -16.48243,1.007813 -1.23479,0.165738 -2.65851,0.34689 -3.89843,0.552734 -2.71473,0.450685 -5.3967,1.081107 -8.07813,1.69336 -3.87606,0.931355 -7.72187,1.996696 -11.41406,3.519531 -4.75477,1.737548 -9.56476,3.316793 -14.34766,4.97461 -3.93744,1.32465 -7.91588,2.52567 -11.83594,3.90234 -3.2753,1.05785 -6.57196,2.05719 -9.80078,3.25 -1.91904,0.72129 -3.82229,1.46703 -5.53125,2.62305 -2.49982,1.46882 -4.97052,2.99195 -7.38476,4.59766 -2.72348,1.84811 -5.45774,3.68149 -8.05664,5.70507 -1.46702,1.21268 -0.73401,0.59352 -2.20118,1.84961 -0.37603,0.32193 -0.77624,0.61595 -1.13867,0.95313 -0.36393,0.33857 -0.6652,0.69853 -0.99218,1.07031 -0.21108,0.21182 -0.26306,0.24549 -0.43946,0.51172 -0.088,0.13281 -0.14104,0.2887 -0.24414,0.41016 -0.0186,0.0219 -0.0289,-0.0491 -0.043,-0.0742 0.008,-0.14168 0.0174,-0.2841 0.0254,-0.42578 -0.10907,0.15505 -0.0782,0.3712 -0.11718,0.55664 -0.12159,0.92691 -0.27045,1.85796 -0.33985,2.79101 -0.11062,1.48768 -0.11906,2.98161 -0.24023,4.46875 -0.28049,3.83802 -0.66629,7.67287 -1.43164,11.44922 -0.66749,3.24509 -1.310549,6.49678 -2.125002,9.70899 -0.852216,3.47304 -1.693616,6.95334 -2.353516,10.46875 -0.182359,1.16964 -0.312613,1.821 -0.382813,3.00195 -0.132114,2.22241 0.03156,4.4491 0.410157,6.64062 0.276112,1.35389 0.556332,2.69784 1.072265,3.98633 0.683121,1.70602 1.689236,3.25255 2.732419,4.75586 1.27456,1.80375 1.71646,2.46694 3.07422,4.23828 0.66692,0.87007 1.36302,1.71687 2.03125,2.58594 1.82564,2.37436 3.5493,4.82157 5.30664,7.24609 0.50775,0.68234 1.00058,1.37605 1.52344,2.04688 3.17657,4.07548 6.79082,7.77337 10.31055,11.54687 4.62857,4.85482 9.35341,9.66117 14.67578,13.76563 1.97226,1.47195 3.13282,2.37417 5.16211,3.75 3.28035,2.22402 6.72264,4.19582 10.20117,6.08984 1.80238,0.82353 2.57491,1.20601 4.38867,1.92774 1.94318,0.77322 3.917,1.46312 5.89844,2.13281 2.64472,-1.15 5.52168,-1.58689 8.4082,-1.51367 1.95426,-4e-5 3.90902,2.4e-4 5.86328,0 2.53741,0 5.07392,4e-5 7.61133,-0.002 4.01076,-0.003 8.02246,-0.005 12.0332,-0.0156 5.87975,-0.0166 11.75921,-0.0392 17.63868,-0.10156 6.20747,-0.0743 12.41821,-0.14097 18.61718,-0.50196 3.61959,-0.24556 7.2637,-0.49743 10.80274,-1.34375 0.34853,-0.0993 1.40062,-0.38906 1.82812,-0.53906 1.19863,-0.42059 2.33135,-1.02331 3.4336,-1.64648 1.76299,-0.96457 3.49913,-1.9775 5.14843,-3.12891 1.68463,-1.13521 3.16305,-2.53231 4.69922,-3.85547 0.75984,-0.70186 1.55351,-1.38498 2.28125,-2.12109 1.11372,-1.12652 2.15819,-2.32181 3.28125,-3.43946 3.16522,-3.1225 6.52255,-6.03154 9.91797,-8.90039 2.40744,-2.11095 4.88315,-4.21097 6.75586,-6.83398 2.10301,-3.17983 3.73369,-6.64514 5.0957,-10.20117 0.26294,-0.7292 0.54955,-1.45027 0.78907,-2.1875 1.19922,-3.69111 1.82512,-7.55041 1.66601,-11.43555 -0.22,-4.63088 -0.69095,-9.28453 -1.93164,-13.76562 -1.56724,-4.95476 -3.3593,-9.83568 -5.11328,-14.72657 -1.59404,-4.48188 -3.24489,-8.94563 -5.33008,-13.22851 -0.59636,-1.24072 -1.69328,-3.54592 -2.32226,-4.77539 -1.81318,-3.54421 -3.79103,-7.00414 -5.85352,-10.40821 -2.63865,-4.16692 -5.39908,-8.24888 -8.3789,-12.18164 -0.81899,-1.11966 -1.54101,-2.13064 -2.4043,-3.21289 -1.9456,-2.43907 -4.1652,-4.63282 -6.50586,-6.6914 -0.64813,-0.54891 -1.27925,-1.12144 -1.94531,-1.64844 -3.56943,-2.824195 -7.51729,-5.13816 -11.63086,-7.070313 -2.19048,-0.902283 -4.3967,-1.879441 -6.68555,-2.515625 -2.1938,-0.609763 -4.45829,-0.964159 -6.7168,-1.21875 -3.16236,-0.160689 -6.32718,-0.222566 -9.49218,-0.222656 z m 7.0371,208.357424 c 0.14249,0.3325 0.34554,0.64159 0.57422,0.92187 0.0569,0.0698 0.14731,0.14348 0.21289,0.2168 -0.22336,-0.37204 -0.4389,-0.74915 -0.67187,-1.11523 -0.0211,-0.0336 -0.13074,-0.0596 -0.11524,-0.0234 z m 8.85547,49.60156 c -0.47588,0.1528 -0.88658,0.46093 -1.33007,0.69141 -0.25759,0.18182 -0.42001,0.42872 -0.65235,0.62695 0.13385,-0.0628 0.27707,-0.10338 0.41016,-0.16797 0.53149,-0.25796 1.06231,-0.52609 1.53906,-0.875 0.0744,-0.0545 0.121,-0.30359 0.0332,-0.27539 z m -30.55273,2.57812 c -1.08632,3.33878 -2.49083,6.54222 -4.30469,9.43946 -1.71076,2.73257 -3.9235,5.119 -5.88476,7.67773 -1.16552,1.04305 -2.33856,2.0766 -3.4961,3.12891 3.10758,5.92129 5.31772,12.24564 5.83203,18.66016 0.32365,4.03647 0.16462,8.1993 -0.6875,12.17773 2.54035,0.23922 5.08115,0.47002 7.62696,0.64844 -3.40872,-5.75022 -5.84978,-9.72514 -5.25977,-18.31641 0.3588,-5.22446 2.19667,-10.36641 4.58399,-15.02734 2.79846,-5.46364 8.7624,-9.75425 13.95507,-12.74219 0.14285,-0.0822 0.30264,-0.13215 0.44727,-0.21094 -3.05688,-0.96214 -6.06835,-2.05987 -8.98828,-3.42383 -1.70326,-0.79562 -2.70588,-1.38482 -3.82422,-2.01172 z m 42.11523,19.24219 c -0.0735,-0.005 -0.19047,0.11938 -0.13867,0.17188 0.5023,0.50955 1.21965,0.9154 2.00977,1.27929 -0.0598,-0.086 -0.10129,-0.1464 -0.16211,-0.23437 -0.37639,-0.3308 -0.72077,-0.70147 -1.12891,-0.99219 -0.16892,-0.12033 -0.37324,-0.20941 -0.58008,-0.22461 z" />
    </clipPath>
    <clipPath
       clipPathUnits="userSpaceOnUse"
       id="clipPath29">
      <path
         style="display:inline;fill:#0000bd;fill-opacity:0.643718;fill-rule:evenodd;stroke-width:10;stroke-linecap:round;stroke-linejoin:round;stroke-miterlimit:100"
         d="m 166.27534,238.69544 -0.22718,-23.42243 0.71625,-2.89078 0.33935,-4.26606 -6.88388,-4.31455 -29.95914,-32.81726 -1.88536,-3.97638 -1.54256,-4.49057 -0.78842,-3.70215 v -3.53075 l 0.13712,-0.27423 0.92554,-7.64425 2.05674,-10.79793 1.85108,-6.82155 1.71395,-3.70215 1.88536,-2.948 3.25652,-3.66787 23.51549,-14.67147 7.40429,-0.95982 4.38773,0.89126 5.34755,6.30736 7.33573,-5.62178 3.01657,-1.23405 h 5.82745 l 3.90782,1.43972 2.33099,2.94801 2.60521,7.8842 13.50598,0.34279 3.83927,1.37117 2.05674,2.53666 0.75415,2.1253 1.85107,1.30261 6.85583,1.16549 5.14187,2.33098 4.1135,4.45629 c 1.16816,1.96888 2.37975,3.912 3.63358,5.82746 1.04498,1.5964 2.1193,3.1736 3.22224,4.73052 l 1.02838,2.33098 0.20664,29.7826 -1.40586,5.7204 -1.74521,3.00564 -0.33935,1.74521 -10.47125,24.0451 -5.04171,4.8478 -1.16348,2.71477 -0.19391,19.97295 z"
         id="path29"
         sodipodi:nodetypes="ccccccccccccccccccccccccccccccccccccccccccccccc"
         inkscape:original-d="m 166.27534,238.69544 -0.22718,-23.42243 0.71625,-2.89078 0.33935,-4.26606 -6.88388,-4.31455 -29.95914,-32.81726 -1.88536,-3.97638 -1.54256,-4.49057 -0.78842,-3.70215 v -3.53075 c 0.0457,-0.0914 0.0914,-0.18282 0.13712,-0.27423 l 0.92554,-7.64425 2.05674,-10.79793 1.85108,-6.82155 1.71395,-3.70215 1.88536,-2.948 3.25652,-3.66787 23.51549,-14.67147 7.40429,-0.95982 4.38773,0.89126 5.34755,6.30736 7.33573,-5.62178 3.01657,-1.23405 h 5.82745 l 3.90782,1.43972 2.33099,2.94801 2.60521,7.8842 13.50598,0.34279 3.83927,1.37117 2.05674,2.53666 0.75415,2.1253 1.85107,1.30261 6.85583,1.16549 5.14187,2.33098 4.1135,4.45629 3.63358,5.82746 3.22224,4.73052 1.02838,2.33098 0.20664,29.7826 -1.40586,5.7204 -1.74521,3.00564 c -0.11312,0.58174 -0.22623,1.16347 -0.33935,1.74521 l -10.47125,24.0451 -5.04171,4.8478 -1.16348,2.71477 -0.19391,19.97295 z"
         inkscape:path-effect="#path-effect12" />
    </clipPath>
  </defs>
  <sodipodi:namedview
     id="namedview1"
     pagecolor="#505050"
     bordercolor="#eeeeee"
     borderopacity="1"
     inkscape:showpageshadow="0"
     inkscape:pageopacity="0"
     inkscape:pagecheckerboard="0"
     inkscape:deskcolor="#505050"
     inkscape:zoom="2.5784878"
     inkscape:cx="-35.098091"
     inkscape:cy="54.489302"
     inkscape:window-width="1920"
     inkscape:window-height="1017"
     inkscape:window-x="1912"
     inkscape:window-y="-8"
     inkscape:window-maximized="1"
     inkscape:current-layer="g1" />
  <g
     inkscape:groupmode="layer"
     inkscape:label="Image"
     id="g1">
    <rect
       style="display:inline;fill:#333333;fill-opacity:1;fill-rule:evenodd;stroke-width:10;stroke-linecap:round;stroke-linejoin:round;stroke-miterlimit:100"
       id="rect1"
       width="428.233"
       height="462.21973"
       x="-21.902569"
       y="-13.594698"
       clip-path="url(#clipPath8)"
       transform="matrix(0.42668152,0,0,0.40012378,-48.029742,-31.918167)" />
    <path
       id="path2"
       clip-path="url(#clipPath6)"
       style="display:inline;fill:#ffffff;fill-opacity:1;fill-rule:evenodd;stroke-width:10;stroke-linecap:round;stroke-linejoin:round;stroke-miterlimit:100"
       d="M 196.36719,23.423828 C 105.91632,23.424269 32.591701,87.328523 32.591797,166.1582 32.717482,235.63252 90.221736,294.9368 168.80078,306.63086 v 36.25781 l -43.42773,0.75586 -0.37696,41.16016 43.04883,0.75586 1.13281,12.83984 3.02149,4.9082 -34.74219,3.02149 -13.59375,3.02148 -8.62109,3.44532 0.66797,5.48437 26.83398,6.55273 c 8.5549,0.47609 17.1161,0.85368 25.67969,1.13282 18.6224,0.60701 37.25638,0.74863 55.88867,0.75586 1.00701,3.9e-4 2.01447,3.9e-4 3.02148,0 l 28.32227,-3.39844 21.90234,-5.66406 -0.37695,-5.28711 -16.23828,-4.91016 c -7.30029,-0.76077 -14.60092,-1.51588 -21.90234,-2.26562 -6.16757,-0.63332 -12.33554,-1.26323 -18.50391,-1.88868 l 2.64258,-17.37109 42.67187,-1.50977 -0.37695,-41.16211 -44.56055,0.37891 2.16016,-36.84961 C 302.06559,295.41697 360.03958,235.93456 360.14453,166.1582 360.14463,87.32786 286.81882,23.423332 196.36719,23.423828 Z m 1.40429,45.785156 c 37.76968,0.931478 73.2166,18.878457 93.14063,48.117186 4.62717,6.79042 10.53963,19.91826 12.68945,28.17383 2.37255,9.11086 2.44945,30.43127 0.13867,38.5 -8.69175,30.34967 -24.56632,49.81551 -52.24023,64.05859 -7.44739,3.83299 -23.10837,9.68434 -23.83789,8.90625 -0.24003,-0.25603 -0.61424,-3.70625 -0.83008,-7.66796 -0.22134,-4.06266 -0.0253,-6.67859 0.44922,-6 0.47748,0.68277 0.68719,-1.70666 0.48437,-5.5254 -0.19657,-3.70097 -0.006,-6.17597 0.42383,-5.5 0.42941,0.67597 0.78651,-2.02322 0.79493,-5.99804 0.0139,-6.57915 -0.20359,-7.37094 -2.43946,-8.83594 -1.35082,-0.88509 -2.85146,-1.36658 -3.33398,-1.06836 -0.48252,0.29821 -0.87696,-0.11325 -0.87696,-0.91406 0,-0.8008 0.4862,-1.48673 1.08204,-1.52539 0.59583,-0.0386 0.18398,-0.47301 -0.91602,-0.96485 -1.31337,-0.58724 -0.18248,-0.68827 3.29297,-0.29492 4.63305,0.52437 5.60211,0.30708 7.7793,-1.73828 1.36787,-1.28506 2.26556,-2.91379 1.99414,-3.62109 -0.27142,-0.7073 0.051,-1.17974 0.71875,-1.04883 0.67249,0.13184 1.18165,-0.74407 1.14062,-1.96289 -0.0407,-1.21015 0.29677,-1.96957 0.75,-1.68945 0.7588,0.46896 1.2035,-1.30028 1.09375,-4.34766 -0.0246,-0.68158 0.30801,-1.02178 0.73828,-0.75586 1.06183,0.65625 2.16313,-2.42106 1.3418,-3.75 -0.41774,-0.67592 -0.17515,-0.76596 0.66601,-0.24609 0.96971,0.59931 1.14814,0.35794 0.66602,-0.89844 -0.44044,-1.14778 -0.2783,-1.48158 0.48828,-1.00781 0.77953,0.48178 0.96388,0.0184 0.58008,-1.44922 -0.36516,-1.39639 -0.18311,-1.92283 0.51367,-1.49219 0.68755,0.42493 0.83847,0.045 0.41797,-1.05078 -0.44044,-1.14778 -0.2783,-1.48158 0.48828,-1.00781 0.77953,0.48178 0.96388,0.0184 0.58008,-1.44922 -0.31034,-1.18676 -0.21339,-1.94044 0.21484,-1.67578 0.42822,0.26465 1.51077,-1.43646 2.40625,-3.78125 1.2533,-3.28171 1.62507,-7.82481 1.61329,-19.73047 -0.0161,-16.29869 -0.64592,-19.25614 -3.70508,-17.3711 -1.59443,0.98248 -6.22238,8.00256 -6.26368,9.50196 -0.009,0.32845 0.99452,1.04703 2.22852,1.59765 2.20406,0.98348 2.18533,1.03095 -1.0332,2.69531 -1.91708,0.99136 -2.99195,2.15603 -2.58985,2.80665 0.40524,0.65568 0.2352,0.83215 -0.41601,0.42968 -1.34064,-0.82856 -3.33919,2.55463 -2.38477,4.03711 0.37412,0.58112 2.14219,1.80679 3.92969,2.72266 3.55299,1.82045 4.48428,4.1398 1.25,3.11328 -2.26037,-0.71741 -2.45085,-0.21023 -0.96484,2.56641 1.25101,2.33753 0.18841,2.47828 -2.81446,0.375 -1.22334,-0.85687 -2.74294,-1.23756 -3.37695,-0.84571 -0.71359,0.44102 -0.88114,0.27327 -0.43945,-0.4414 0.39244,-0.63498 0.29246,-1.1543 -0.22266,-1.1543 -1.41831,0 -3.43293,2.78616 -2.7793,3.84375 0.66887,1.08224 -0.52042,2.18791 -2.65039,2.87109 -0.31351,0.24375 -0.53123,0.30576 -0.64257,0.17969 -1.03365,0.26766 -2.22159,0.45091 -3.5254,0.48633 -2.45082,0.0666 -4.14377,-0.28788 -3.82617,-0.80078 0.31529,-0.50918 -0.19669,-0.62619 -1.14648,-0.26172 -1.07888,0.414 -1.47278,0.26736 -1.0625,-0.39648 0.3589,-0.58073 -0.2894,-1.30277 -1.43945,-1.60352 -1.7189,-0.4495 -1.95962,-1.01486 -1.35352,-3.18164 0.40553,-1.44974 0.73853,-4.28607 0.74023,-6.30274 0.002,-2.01666 0.21083,-3.45909 0.46485,-3.20507 0.4726,0.47259 1.65263,-4.61988 4.54492,-19.62891 0.90089,-4.675 1.84767,-9.54374 2.10352,-10.82031 0.72327,-3.60895 2.93304,-1.98274 2.60351,1.91601 -0.15827,1.87265 -0.38327,4.82362 -0.5,6.5586 -0.11672,1.73498 -0.51463,2.96777 -0.88281,2.74023 -1.59834,-0.98783 -5.55886,20.35684 -4.0332,21.73633 0.38631,0.34929 3.08618,0.84807 6,1.10937 5.06424,0.45415 5.36748,0.34345 6.83789,-2.5 0.84602,-1.63604 1.31598,-3.82286 1.04492,-4.85937 -0.27105,-1.03651 -0.10208,-1.64251 0.375,-1.34766 0.47708,0.29485 1.8151,-2.74145 2.97461,-6.74804 1.15952,-4.00659 2.56348,-8.39692 3.11914,-9.75586 l 1.00976,-2.47071 1.86719,2.47071 c 1.30582,1.72826 2.18431,2.15469 2.92188,1.41992 0.73853,-0.73573 -0.17064,-2.93355 -3.03125,-7.33594 -4.31226,-6.63641 -6.87389,-8.30583 -14.72852,-9.59961 -3.13891,-0.51703 -4.53769,-1.30623 -5.14453,-2.90234 C 221.48199,117.50564 219.13135,116.5 211.0918,116.5 H 203.5 l -1.57812,-5 c -1.80876,-5.73218 -4.25484,-7.46194 -10.57813,-7.48438 -3.31798,-0.0118 -5.02291,0.70965 -8.46094,3.58204 l -4.30469,3.59765 -2.88671,-3.59765 C 173.03819,104.29035 172.38223,104 167.55078,104 c -3.80924,0 -6.18259,0.62618 -8.62695,2.27344 -4.07325,2.74495 -6.50661,6.76511 -5.57031,9.20508 0.61683,1.60744 1.56667,1.72186 9.1875,1.10351 4.67444,-0.37928 10.43892,-1.27257 12.81054,-1.98633 2.37162,-0.71375 5.73794,-1.08973 7.48047,-0.83398 3.08926,0.45341 3.16797,0.59448 3.16797,5.63672 0,2.84414 -0.95708,7.85578 -2.12695,11.13672 -2.96544,8.31668 -4.0889,34.46484 -1.48047,34.46484 0.9181,0 1.92951,-0.675 2.24609,-1.5 0.31659,-0.825 1.03135,-1.5 1.58985,-1.5 0.58917,0 0.4974,0.62341 -0.21875,1.48633 -0.67888,0.81799 -0.96305,2.19216 -0.63282,3.05273 0.36728,0.95712 0.18917,1.31074 -0.45898,0.91016 -0.68605,-0.42401 -0.94615,0.5196 -0.73828,2.67578 0.2204,2.28631 1.04509,3.68864 2.63086,4.47461 l 2.30859,1.14453 -2.5293,0.48438 c -1.57562,0.3012 -2.29127,0.0958 -1.89648,-0.54297 0.375,-0.60677 0.004,-0.78376 -0.9082,-0.4336 -1.98837,0.763 -3.80011,-1.04874 -3.03711,-3.03711 0.35944,-0.93668 0.17716,-1.2874 -0.46485,-0.89062 -0.60108,0.37149 -0.99787,-0.0952 -0.91992,-1.08399 0.0864,-1.09599 -0.69504,-1.85686 -2.11328,-2.05859 -1.2375,-0.17602 -2.25,0.0473 -2.25,0.49805 0,0.45075 -1.06885,0.82031 -2.375,0.82031 -3.36753,0 -2.64336,-2.45185 1.20117,-4.06836 2.4127,-1.01446 3.17383,-1.95961 3.17383,-3.94141 0,-1.43401 -0.39881,-2.36208 -0.88672,-2.06054 -0.4879,0.30154 -0.8254,-0.23483 -0.75,-1.19141 0.17302,-2.19497 -6.20115,-3.0988 -7.49219,-1.0625 -1.26597,1.99674 -1.03677,7.25744 0.37891,8.6836 1.00273,1.01014 0.87135,1.11423 -0.66406,0.52929 -1.47897,-0.56344 -1.72559,-0.40576 -1.08789,0.69141 0.45391,0.78097 -0.37225,0.32946 -1.83594,-1.00391 -3.23288,-2.94506 -3.55269,-4.12532 -0.41211,-1.52148 1.61499,1.33898 1.50907,1.07155 -0.375,-0.94727 -2.17158,-2.32691 -2.96735,-2.62787 -4.61133,-1.74804 -1.62354,0.86888 -2.41312,0.60969 -4.3125,-1.41211 -1.79372,-1.90933 -2.05434,-2.74449 -1.13867,-3.66016 0.65272,-0.65272 1.1875,-2.15228 1.1875,-3.33203 0,-1.17976 0.9,-2.95959 2,-3.95508 3.58801,-3.2471 2.04147,-8.83334 -2.71484,-9.80664 -3.21479,-0.65786 -7.06878,-3.24176 -6.17188,-4.13867 0.33536,-0.33535 1.82542,-0.14742 3.3125,0.41797 7.25542,2.75851 20.64438,-0.5917 27.7832,-6.95118 2.35983,-2.10222 3.94141,-4.1785 3.51368,-4.61523 -0.42773,-0.43673 -3.42381,-0.24813 -6.65821,0.41992 -6.80018,1.40456 -10.76603,0.27361 -11.26367,-3.21289 C 164.51104,119.58335 163.97611,119.5 151.16602,119.5 h -13.33399 l -2.88086,3.22656 c -1.58464,1.77488 -3.57643,5.61742 -4.42578,8.53906 -2.11186,7.26455 -4.5298,21.37596 -4.49414,26.23438 0.0358,4.8847 4.09957,15.10576 5.85352,14.72461 0.69547,-0.15112 0.96674,0.2072 0.60351,0.79492 -0.8659,1.40105 1.43522,4.14514 2.7793,3.31445 0.57266,-0.35392 0.77069,-0.20391 0.43945,0.33204 -0.33124,0.53595 4.2103,5.66776 10.09375,11.40429 l 10.56445,10.29883 c 3.2e-4,-0.003 0.002,-0.005 0.002,-0.008 L 147,188.5 l -9.5,-10 9.69922,9.42969 c 5.33414,5.1859 9.48018,9.77965 9.21484,10.20898 -0.037,0.0598 -0.037,0.14416 -0.0469,0.22266 l 0.13086,0.13867 -0.13282,-0.13086 c -0.21275,1.88538 6.96675,8.77666 8.81641,8.29297 1.10829,-0.28983 1.56726,-0.0636 1.17188,0.57617 -0.41709,0.67485 0.2867,0.87195 1.96679,0.55078 1.61974,-0.30964 2.3809,-0.11407 1.99414,0.51172 -0.40181,0.65014 0.76936,0.81003 3.2793,0.44727 2.14802,-0.31044 3.34132,-0.34186 2.65039,-0.0703 -0.69093,0.27159 -1.0023,0.90519 -0.69141,1.40821 C 175.86361,210.589 175.61492,211 175,211 c -0.61492,0 -0.90837,0.3375 -0.65234,0.75 0.25604,0.4125 -1.40534,0.75 -3.69141,0.75 H 166.5 l -0.30469,5.34375 c -0.16802,2.93882 0.057,5.11875 0.5,4.84375 0.44303,-0.27501 0.57969,7.44507 0.30469,17.15625 -0.47323,16.71138 -0.60708,17.66957 -2.5,17.91602 -1.1,0.14321 -6.725,-1.68473 -12.5,-4.0625 -18.01206,-7.41616 -28.25059,-13.87574 -39.07617,-24.6543 C 101.11065,217.2811 93.812329,205.34196 88.443359,189 c -2.52042,-7.6716 -2.79969,-9.91315 -2.851562,-23 -0.04816,-12.15099 0.305738,-15.76176 2.183594,-22.29102 C 95.544036,116.6976 114.415,94.984191 141.5,81.892578 c 14.39455,-6.957648 26.48095,-10.591899 39.98047,-12.023437 5.45199,-0.57815 10.89535,-0.793225 16.29101,-0.660157 z m 29.3379,107.685546 c 0.22037,-0.0571 0.4389,-0.11436 0.64257,-0.17969 0.3567,-0.27731 0.80819,-0.74209 1.375,-1.46484 1.24387,-1.58606 1.20911,-1.62082 -0.37695,-0.37695 -0.9625,0.75485 -1.75,1.54235 -1.75,1.75 0,0.15206 0.0554,0.21041 0.10938,0.27148 z m -24.17579,-52.25391 c 0.0589,-0.0129 0.11365,0.006 0.16602,0.0586 0.44911,0.44911 -0.093,8.46308 -1.20508,17.80859 -1.11209,9.34551 -1.86312,18.42296 -1.66797,20.17188 0.19515,1.74892 -0.0317,2.9395 -0.50586,2.64648 -0.47413,-0.29303 -0.71758,0.96426 -0.54101,2.79297 0.31925,3.30651 0.34735,3.32303 5.09961,3.02539 3.88322,-0.24322 5.23831,0.13619 7.23242,2.02735 1.34969,1.28002 2.4684,3.00312 2.48633,3.82812 0.029,1.33333 0.1522,1.33333 1.11133,0 0.89739,-1.24751 0.97866,-1.19143 0.48437,0.33203 -0.32688,1.00748 -0.59375,2.24498 -0.59375,2.75 0,0.50501 -1.15113,0.91797 -2.55859,0.91797 -1.40746,0 -2.30822,0.40754 -2,0.90625 0.30822,0.49871 -0.40895,0.65409 -1.59571,0.34375 -1.18677,-0.31035 -1.90614,-0.15734 -1.59765,0.3418 0.30848,0.49913 -1.42127,0.9082 -3.84375,0.9082 h -4.48047 c -0.0421,0 -0.22026,-0.73246 -0.39453,-1.62695 C 197.58969,177.05026 196.79811,176 194.09961,176 c -1.75481,0 -2.76563,-0.53134 -2.76563,-1.45508 0,-0.80081 0.32782,-1.25351 0.72852,-1.00586 0.98848,0.61091 1.9375,-2.09098 1.9375,-5.51367 0,-1.54617 0.60562,-3.04412 1.3457,-3.32812 1.24205,-0.47662 2.46253,-7.42458 4.25,-24.19727 0.88772,-8.3298 2.45512,-15.66547 3.33789,-15.85938 z m -25.41406,11.52344 c -1.66691,-0.12419 -4.77821,0.60021 -9.51953,2.18946 l -6.5,2.17773 0.29297,6.28516 c 0.16161,3.45629 0.7215,7.40391 1.24219,8.77343 0.79391,2.08814 1.26197,2.32218 2.90039,1.44532 1.07456,-0.57509 2.23027,-1.49398 2.56836,-2.04102 C 168.842,154.4471 170.89105,154 173.05859,154 H 177 v -5.09375 c 0,-4.25262 -0.33022,-5.18053 -2,-5.61719 C 172.51048,142.63804 172.36813,141 174.80078,141 176.90652,141 179,139.15584 179,137.30078 c 0,-0.68114 -0.48032,-1.0622 -1.48047,-1.13672 z m 18.75977,18.21485 c 0.10513,-0.10514 0.24468,0.0347 0.40429,0.43359 0.28887,0.72187 0.25218,1.58372 -0.0801,1.91602 -0.3323,0.33229 -0.56881,-0.25834 -0.5254,-1.3125 0.024,-0.58248 0.096,-0.93197 0.20118,-1.03711 z m -3.76758,13.43945 c 0.057,0.0591 0.11825,0.20793 0.18164,0.45117 0.25354,0.97297 0.23686,2.32297 -0.0371,3 -0.27393,0.67703 -0.48132,-0.11953 -0.46094,-1.76953 0.0153,-1.2375 0.14546,-1.85897 0.31641,-1.68164 z m 32.4043,10.30469 c 0.34739,0.0143 0.64635,0.10731 0.8125,0.27343 0.33229,0.33229 -0.25834,0.56881 -1.3125,0.5254 -1.16495,-0.048 -1.40125,-0.28625 -0.60352,-0.60547 0.36093,-0.14444 0.75612,-0.20767 1.10352,-0.19336 z m -22,6 c 0.34739,0.0143 0.64635,0.10731 0.8125,0.27343 0.33229,0.33229 -0.25834,0.56881 -1.3125,0.5254 -1.16495,-0.048 -1.40125,-0.28625 -0.60352,-0.60547 0.36093,-0.14444 0.75612,-0.20767 1.10352,-0.19336 z M 157.5,199.5 l 3.25,2.9375 c 3.02946,2.73778 3.71006,3.5625 2.9375,3.5625 -0.1721,0 -1.6346,-1.4625 -3.25,-3.25 z m 38.33398,2.06445 c 0.0577,0.0442 0.0948,0.162 0.10352,0.35743 0.0984,2.20676 -2.93926,5.0137 -4.69531,4.33984 -1.03686,-0.39788 -1.32516,-0.20425 -0.84766,0.56836 0.85436,1.38238 0.58374,1.44245 -1.25195,0.2793 -0.9613,-0.60911 -1.02815,-1.06095 -0.23242,-1.55274 0.61769,-0.38175 0.89524,-1.06378 0.61718,-1.51367 -0.7194,-1.16402 2.8281,-0.74506 3.67188,0.43359 0.38425,0.53676 1.14217,-0.13824 1.68555,-1.5 0.40753,-1.02132 0.77597,-1.54457 0.94921,-1.41211 z M 234.81055,208 c 0.275,0 -0.31506,0.9 -1.31055,2 -0.99549,1.1 -2.03555,2 -2.31055,2 -0.275,0 0.31506,-0.9 1.31055,-2 0.99549,-1.1 2.03555,-2 2.31055,-2 z m -51.47852,0.0781 c 1.19251,0.0434 1.60304,0.30738 0.91211,0.58594 -0.69093,0.27855 -1.0023,0.91886 -0.69141,1.42188 0.31088,0.50302 0.42582,0.85999 0.25586,0.79492 -0.16996,-0.0651 -1.65859,-0.41482 -3.30859,-0.77734 -2.48897,-0.54685 -2.68773,-0.78138 -1.16797,-1.38086 1.00748,-0.3974 2.80748,-0.68795 4,-0.64454 z M 179,211.12891 c 0.45312,0 0.90625,0.0703 1.25,0.20898 0.6875,0.27741 0.125,0.50391 -1.25,0.50391 -1.375,0 -1.9375,-0.2265 -1.25,-0.50391 0.34375,-0.1387 0.79688,-0.20898 1.25,-0.20898 z m 37.33789,1.25195 c 0.27029,0.007 0.29909,0.399 0.043,1.06641 -0.66479,1.73242 -1.38086,2.04975 -1.38086,0.61132 0,-0.51754 0.44458,-1.21476 0.98828,-1.55078 0.14172,-0.0876 0.25952,-0.12922 0.34961,-0.12695 z m 10.94141,11.99805 c 0.10513,-0.10514 0.24468,0.0347 0.40429,0.43359 0.28887,0.72187 0.25218,1.58372 -0.0801,1.91602 -0.3323,0.33229 -0.56881,-0.25834 -0.5254,-1.3125 0.024,-0.58248 0.096,-0.93197 0.20118,-1.03711 z m -2,23 c 0.10513,-0.10514 0.24468,0.0347 0.40429,0.43359 0.28887,0.72187 0.25218,1.58372 -0.0801,1.91602 -0.3323,0.33229 -0.56881,-0.25834 -0.5254,-1.3125 0.024,-0.58248 0.096,-0.93197 0.20118,-1.03711 z"
       transform="matrix(0.17096484,0,0,0.17356844,1.4279486,-4.0656373)" />
  </g>
</svg>
