<?xml version="1.0" encoding="UTF-8" standalone="no"?>
<svg
   viewBox="0 0 32 32"
   x="0px"
   y="0px"
   version="1.1"
   id="svg5"
   width="32"
   height="32"
   sodipodi:docname="arrows-to-center.svg"
   inkscape:version="1.3.2 (091e20e, 2023-11-25)"
   xmlns:inkscape="http://www.inkscape.org/namespaces/inkscape"
   xmlns:sodipodi="http://sodipodi.sourceforge.net/DTD/sodipodi-0.dtd"
   xmlns="http://www.w3.org/2000/svg"
   xmlns:svg="http://www.w3.org/2000/svg"
   xmlns:rdf="http://www.w3.org/1999/02/22-rdf-syntax-ns#"
   xmlns:cc="http://creativecommons.org/ns#"
   xmlns:dc="http://purl.org/dc/elements/1.1/">
  <sodipodi:namedview
     id="namedview1"
     pagecolor="#505050"
     bordercolor="#ffffff"
     borderopacity="1"
     inkscape:showpageshadow="0"
     inkscape:pageopacity="0"
     inkscape:pagecheckerboard="1"
     inkscape:deskcolor="#505050"
     inkscape:zoom="23.8125"
     inkscape:cx="15.979003"
     inkscape:cy="16"
     inkscape:window-width="1920"
     inkscape:window-height="962"
     inkscape:window-x="0"
     inkscape:window-y="27"
     inkscape:window-maximized="1"
     inkscape:current-layer="svg5" />
  <defs
     id="defs5" />
  <title
     id="title1">Arrow-704</title>
  <g
     data-name="Arrow"
     id="g4"
     transform="matrix(1.0721944,0,0,1.070985,-1.1551104,-1.1299195)">
    <rect
       x="11.43"
       y="11.5"
       width="9"
       height="9"
       rx="2.5"
       id="rect1"
       style="fill:#ffffff;fill-opacity:1" />
    <path
       d="M 6.48,11.07 A 1.51,1.51 0 0 0 5.31,10.5 h -2.8 a 0.5,0.5 0 0 0 -0.4,0.8 l 3.28,4.38 v 0 a 0.51,0.51 0 0 1 0,0.63 L 2.11,20.7 a 0.5,0.5 0 0 0 0.4,0.8 h 2.8 a 1.51,1.51 0 0 0 1.17,-0.57 l 3.19,-4 a 1.5,1.5 0 0 0 0,-1.88 z"
       id="path1"
       style="fill:#ffffff;fill-opacity:1" />
    <path
       d="m 16.94,22.33 a 1.48,1.48 0 0 0 -1.88,0 l -4,3.19 a 1.51,1.51 0 0 0 -0.57,1.17 v 2.8 a 0.5,0.5 0 0 0 0.8,0.4 l 4.38,-3.28 v 0 a 0.51,0.51 0 0 1 0.63,0 l 4.38,3.28 a 0.45,0.45 0 0 0 0.3,0.1 0.59,0.59 0 0 0 0.22,0 0.51,0.51 0 0 0 0.28,-0.45 v -2.8 a 1.51,1.51 0 0 0 -0.57,-1.17 z"
       id="path2"
       style="fill:#ffffff;fill-opacity:1" />
    <path
       d="m 29.89,11.3 a 0.5,0.5 0 0 0 -0.4,-0.8 h -2.8 a 1.51,1.51 0 0 0 -1.17,0.57 l -3.19,4 a 1.5,1.5 0 0 0 0,1.88 l 3.19,4 a 1.51,1.51 0 0 0 1.17,0.57 h 2.8 a 0.5,0.5 0 0 0 0.4,-0.8 l -3.28,-4.38 v 0 a 0.51,0.51 0 0 1 0,-0.63 z"
       id="path3"
       style="fill:#ffffff;fill-opacity:1" />
    <path
       d="m 21.22,2.06 a 0.51,0.51 0 0 0 -0.52,0 l -4.38,3.33 v 0 a 0.51,0.51 0 0 1 -0.63,0 L 11.3,2.11 a 0.5,0.5 0 0 0 -0.8,0.4 v 2.8 a 1.51,1.51 0 0 0 0.57,1.17 l 4,3.19 a 1.5,1.5 0 0 0 1.88,0 l 4,-3.19 a 1.51,1.51 0 0 0 0.57,-1.17 v -2.8 a 0.51,0.51 0 0 0 -0.3,-0.45 z"
       id="path4"
       style="fill:#ffffff;fill-opacity:1" />
  </g>
  <metadata
     id="metadata6">
    <rdf:RDF>
      <cc:Work
         rdf:about="">
        <dc:title>Arrow-704</dc:title>
      </cc:Work>
    </rdf:RDF>
  </metadata>
</svg>
