<?xml version="1.0" encoding="UTF-8"?><svg xmlns="http://www.w3.org/2000/svg" xmlns:xlink="http://www.w3.org/1999/xlink" width="1440" zoomAndPan="magnify" viewBox="0 0 1440 809.999993" height="809.999993" preserveAspectRatio="xMidYMid meet" version="1.0"><defs><clipPath id="clip-0"><path d="M 26 291.304688 L 1414.671875 291.304688 L 1414.671875 392 L 26 392 Z M 26 291.304688 " clip-rule="nonzero"/></clipPath><clipPath id="clip-1"><path d="M 698 374 L 791 374 L 791 518.554688 L 698 518.554688 Z M 698 374 " clip-rule="nonzero"/></clipPath></defs><g clip-path="url(#clip-0)"><path fill="rgb(0%, 0%, 0%)" d="M 26.261719 332.519531 C 26.261719 332.519531 860.429688 487 1414.082031 296.128906 L 1414.082031 291.382812 C 861.476562 481.902344 26.261719 326.832031 26.261719 326.832031 L 26.261719 332.519531 " fill-opacity="1" fill-rule="evenodd"/></g><path fill="rgb(99.609375%, 78.42865%, 34.118652%)" d="M 200.023438 342.921875 L 108.996094 334.011719 L 108.996094 479.40625 L 153.046875 455.914062 L 200.34375 479.796875 L 200.023438 342.921875 " fill-opacity="1" fill-rule="evenodd"/><path fill="rgb(99.609375%, 78.42865%, 34.118652%)" d="M 391.539062 363.742188 L 301.707031 355.085938 L 301.730469 499.054688 L 345.769531 475.574219 L 393.066406 499.445312 L 391.539062 363.742188 " fill-opacity="1" fill-rule="evenodd"/><path fill="rgb(99.609375%, 78.42865%, 34.118652%)" d="M 595.71875 373.953125 L 505.445312 372 L 505.535156 515.714844 L 549.585938 492.234375 L 596.871094 516.105469 L 595.71875 373.953125 " fill-opacity="1" fill-rule="evenodd"/><g clip-path="url(#clip-1)"><path fill="rgb(99.609375%, 78.42865%, 34.118652%)" d="M 790.214844 374.6875 L 698.648438 375.570312 L 698.457031 518.214844 L 742.511719 494.730469 L 789.804688 518.613281 L 790.214844 374.6875 " fill-opacity="1" fill-rule="evenodd"/></g><path fill="rgb(99.609375%, 78.42865%, 34.118652%)" d="M 985.679688 365.710938 L 895.277344 372.359375 L 895.777344 508.734375 L 939.820312 485.253906 L 987.117188 509.125 L 985.679688 365.710938 " fill-opacity="1" fill-rule="evenodd"/><path fill="rgb(99.609375%, 78.42865%, 34.118652%)" d="M 1179.699219 343.160156 L 1087.214844 353.183594 L 1088.359375 488.160156 L 1132.402344 464.679688 L 1179.699219 488.5625 L 1179.699219 343.160156 " fill-opacity="1" fill-rule="evenodd"/><path fill="rgb(99.609375%, 78.42865%, 34.118652%)" d="M 1345.777344 308.808594 L 1255.816406 328.136719 L 1257.371094 459.195312 L 1301.019531 434.96875 L 1348.699219 458.058594 L 1345.777344 308.808594 " fill-opacity="1" fill-rule="evenodd"/></svg>